# Blender 5.0.1
# www.blender.org
mtllib 1_industrial.mtl
o 5
v -4.561039 -4.818830 -4.312337
v -4.561039 -4.568830 -4.312337
v -3.811039 -3.568831 -0.062338
v -3.811039 -3.568831 -1.312338
v -3.811039 -3.568831 -2.562338
v -3.811039 -2.068831 1.187662
v -3.811039 -2.068831 -0.062338
v -3.811039 -2.068831 -1.812338
v -3.811039 -1.568831 -2.562338
v -3.811039 -0.818831 -2.562337
v -3.811039 -0.318831 -2.562337
v -3.811039 2.181169 -2.562337
v -3.811039 2.931169 -2.562337
v -3.561039 -2.068831 1.937662
v -3.561039 -3.568831 -0.062338
v -3.561039 -2.068831 -0.562338
v -3.561039 -3.568831 -1.312338
v -3.561039 -2.068831 -1.312338
v -3.561039 -2.068831 -1.812338
v -3.561039 -2.068831 -2.562338
v -3.561039 -0.818831 2.187663
v -3.561039 -1.568831 -2.562338
v -3.561039 -1.568831 2.187662
v -3.561039 1.681169 -2.562337
v -3.561039 2.931169 2.187663
v -3.561039 2.181169 2.187663
v -3.561039 2.931169 -2.562337
v -2.561039 3.931169 -2.062337
v -2.311039 -2.068831 2.437662
v -2.311039 3.431169 -0.062337
v -2.311039 3.431169 1.937663
v -2.311039 3.681169 -0.062337
v -2.311039 3.681169 -2.062337
v -0.311039 -0.818831 0.187663
v -0.311039 0.431169 0.437663
v -0.311039 -0.318831 0.437663
v -0.311039 0.431169 0.187663
v -0.311039 0.931169 0.187663
v -0.311039 1.681169 0.187663
v -0.311039 2.931169 0.437663
v -0.311039 2.181169 0.187663
v 0.188961 -4.568830 -3.562338
v 0.938961 3.931169 -1.062337
v 1.188961 -1.568831 0.437663
v 1.188961 0.431169 0.437663
v 1.188961 0.431169 0.187663
v 1.188961 1.681169 0.437663
v 1.188961 2.931169 0.187663
v 1.438961 -3.318831 -3.062338
v 1.688961 -0.818831 0.937663
v 1.688961 -0.818831 2.437663
v 1.688961 -0.318831 0.937663
v 1.688961 0.431169 0.937663
v 1.688961 0.931169 0.937663
v 1.688961 3.681169 2.437663
v 1.688961 3.681169 0.437663
v 1.938961 -0.818831 2.187663
v 1.938961 -1.568831 0.937663
v 1.938961 -0.818831 0.937663
v 1.938961 -0.318831 2.187663
v 1.938961 0.931169 0.937663
v 1.938961 1.681169 0.937663
v 1.938961 2.181169 0.937663
v 1.938961 2.931169 0.937663
v 1.938961 3.681169 -2.062337
v 3.188961 -2.068831 2.437662
v 3.188961 -3.568831 2.437662
v 3.188961 3.431169 -2.562337
v -3.311039 -2.068831 2.187662
v -3.311039 3.431169 1.937663
v -3.311039 3.431169 -2.562337
v -2.061039 -0.318831 2.187663
v -2.061039 0.431169 2.187663
v -2.061039 0.431169 0.937663
v -2.061039 0.931169 2.187663
v -2.061039 2.181169 0.937663
v -2.061039 2.931169 2.187663
v -2.061039 3.681169 -2.312337
v -1.811039 -1.568831 0.937663
v -1.811039 -0.818831 2.437663
v -1.811039 -0.318831 2.437663
v -1.811039 2.181169 2.437663
v -1.811039 2.181169 0.937663
v -1.811039 2.931169 2.437663
v -1.811039 3.681169 2.437663
v -1.811039 3.681169 0.437663
v -1.311039 -1.568831 0.437663
v -1.311039 -0.318831 0.187663
v -1.311039 1.681169 0.437663
v -1.061039 3.931169 -2.062337
v 0.188961 -1.568831 0.187663
v 0.188961 -0.818831 0.187663
v 0.188961 -0.318831 0.187663
v 0.188961 0.431169 0.437663
v 0.188961 0.931169 0.437663
v 0.188961 2.181169 0.437663
v 0.188961 2.181169 0.187663
v 1.438961 3.431169 -2.312337
v 2.188961 -3.568831 2.437662
v 2.188961 -2.068831 2.437662
v 2.188961 3.431169 -0.062337
v 2.188961 3.681169 -2.062337
v 2.438961 3.931169 -2.062337
v 3.438961 -3.568831 1.937662
v 3.438961 -3.568831 -2.562338
v 3.438961 -0.818831 2.187663
v 3.438961 -0.818831 -2.562337
v 3.438961 -0.318831 -2.562337
v 3.438961 2.181169 -2.562337
v 3.688961 -3.568831 1.937662
v 3.688961 -3.568831 -0.062338
v 3.688961 -3.568831 -1.312338
v 3.688961 -3.568831 -1.812338
v 3.688961 -2.068831 -1.812338
v 3.688961 -2.068831 -2.562338
v 3.688961 -1.568831 2.437662
v 3.688961 -1.568831 -2.562338
v 3.688961 2.931169 2.437663
v 4.438961 -4.818831 4.687663
v 4.438961 -4.568831 4.687663
v -4.561039 -4.818831 4.687663
v -3.311039 -2.068831 2.437662
v -3.811039 -0.318831 2.437663
v -3.811039 -0.818831 2.437663
v -1.811039 1.681169 2.437663
v -3.811039 2.181169 2.437663
v -3.811039 3.681169 2.437663
v 1.688961 -1.568831 2.437662
v 1.688961 -0.318831 2.437663
v 3.688961 -0.318831 2.437663
v 3.688961 1.681169 2.437663
v 1.688961 2.931169 2.437663
v -2.311039 -3.568831 2.187662
v -3.311039 -3.568831 2.187662
v -2.061039 -1.568831 2.187662
v -3.561039 0.431169 2.187663
v -3.561039 -0.318831 2.187663
v -3.561039 1.681169 2.187663
v 3.188961 -3.568831 2.187662
v 2.188961 -3.568831 2.187662
v 3.438961 -1.568831 2.187662
v 3.438961 0.431169 2.187663
v 3.438961 1.681169 2.187663
v 1.938961 2.931169 2.187663
v 1.938961 2.181169 2.187663
v -3.561039 -3.568831 1.187662
v -3.811039 -3.568831 1.187662
v -1.811039 -0.818831 0.937663
v -1.811039 0.431169 0.937663
v -1.811039 0.931169 0.937663
v -2.061039 0.931169 0.937663
v 1.688961 -1.568831 0.937663
v 1.938961 0.431169 0.937663
v 1.688961 1.681169 0.937663
v 1.688961 2.931169 0.937663
v 1.688961 2.181169 0.937663
v -1.311039 0.931169 0.437663
v -1.311039 2.181169 0.437663
v -1.311039 2.931169 0.437663
v -0.811039 -2.318831 0.437662
v -0.311039 1.681169 0.437663
v 0.188961 -0.318831 0.437663
v 0.188961 1.681169 0.437663
v 1.188961 -0.318831 0.437663
v 1.188961 0.931169 0.437663
v 1.188961 2.181169 0.437663
v 1.188961 2.931169 0.437663
v -0.311039 -1.568831 0.187663
v -0.311039 -0.318831 0.187663
v -1.311039 1.681169 0.187663
v -1.311039 0.931169 0.187663
v -0.311039 2.931169 0.187663
v 0.688961 -2.318831 0.187662
v 1.188961 -1.568831 0.187663
v 1.188961 -0.318831 0.187663
v 1.188961 0.931169 0.187663
v 0.188961 0.931169 0.187663
v -3.561039 -2.068831 -0.062338
v 3.438961 -3.568831 -0.062338
v -2.561039 3.931169 -1.062337
v 2.438961 3.931169 -1.062337
v -3.811039 -2.068831 -1.312338
v 3.438961 -2.068831 -1.312338
v -3.811039 -2.068831 -2.562338
v -3.561039 -0.818831 -2.562337
v -3.561039 -0.318831 -2.562337
v -3.561039 0.431169 -2.562337
v -3.561039 0.931169 -2.562337
v -3.811039 0.931169 -2.562337
v -3.311039 3.681169 -2.562337
v 3.188961 3.681169 -2.562337
v 3.688961 -3.568831 -2.562338
v 3.438961 -2.068831 -2.562338
v 3.688961 0.431169 -2.562337
v 3.688961 0.931169 -2.562337
v 3.438961 0.931169 -2.562337
v 3.688961 1.681169 -2.562337
v 3.688961 2.931169 -2.562337
v -3.811039 -3.568831 1.937662
v -3.561039 -3.568831 1.937662
v -3.311039 3.681169 1.937663
v -2.311039 3.681169 1.937663
v 2.188961 3.431169 1.937663
v 3.188961 3.431169 1.937663
v 3.188961 3.681169 1.937663
v 3.688961 -2.068831 1.937662
v -3.811039 -2.068831 0.687662
v -3.561039 -3.568831 0.687662
v 3.438961 -2.068831 0.687662
v 3.688961 -3.568831 0.687662
v 2.188961 3.681169 -0.062337
v -3.811039 -3.568831 -0.562338
v -3.811039 -2.068831 -0.562338
v -3.561039 -3.568831 -0.562338
v 3.438961 -3.568831 -0.562338
v 3.438961 -2.068831 -0.562338
v -3.811039 -3.568831 -1.812338
v -3.561039 -3.568831 -1.812338
v 3.438961 -3.568831 -1.812338
v 3.438961 -2.068831 -1.812338
v -2.061039 3.681169 -2.062337
v -1.311039 3.681169 -2.062337
v -2.311039 3.681169 -2.312337
v -1.561039 3.681169 -2.312337
v -1.311039 3.681169 -2.312337
v 1.438961 3.681169 -2.312337
v 1.438961 -4.568830 -3.062338
v 1.438961 -4.568830 -3.812338
v 4.438961 -4.818830 -4.312337
v -0.811039 -2.318831 0.187662
v 0.688961 -2.318831 0.437662
v -2.311039 -2.068831 2.187662
v 2.188961 -2.068831 2.187662
v 3.188961 -2.068831 2.187662
v -3.811039 -2.068831 1.937662
v -3.561039 -2.068831 1.187662
v 3.438961 -2.068831 1.187662
v 3.438961 -2.068831 1.937662
v 3.688961 -2.068831 1.187662
v -3.561039 -2.068831 0.687662
v 3.438961 -2.068831 -0.062338
v 3.688961 -2.068831 0.687662
v 3.688961 -2.068831 -0.062338
v 3.688961 -2.068831 -0.562338
v 3.688961 -2.068831 -1.312338
v -2.061039 -0.818831 2.187663
v 3.688961 -0.818831 2.437663
v -2.061039 -0.818831 0.937663
v -1.311039 -0.818831 0.187663
v -0.311039 -0.818831 0.437663
v -1.311039 -0.818831 0.437663
v 1.188961 -0.818831 0.437663
v 0.188961 -0.818831 0.437663
v 1.188961 -0.818831 0.187663
v 3.688961 -0.818831 -2.562337
v -1.811039 0.431169 2.437663
v -3.811039 0.431169 2.437663
v 1.938961 0.431169 2.187663
v 3.688961 0.431169 2.437663
v 1.688961 0.431169 2.437663
v -1.311039 0.431169 0.187663
v -1.311039 0.431169 0.437663
v 0.188961 0.431169 0.187663
v -3.811039 0.431169 -2.562337
v 3.438961 0.431169 -2.562337
v -3.811039 1.681169 2.437663
v -2.061039 1.681169 2.187663
v 1.938961 1.681169 2.187663
v 1.688961 1.681169 2.437663
v -2.061039 1.681169 0.937663
v -1.811039 1.681169 0.937663
v 0.188961 1.681169 0.187663
v 1.188961 1.681169 0.187663
v -3.811039 1.681169 -2.562337
v 3.438961 1.681169 -2.562337
v -3.811039 2.931169 2.437663
v 3.438961 2.931169 2.187663
v -2.061039 2.931169 0.937663
v -1.811039 2.931169 0.937663
v -1.311039 2.931169 0.187663
v 0.188961 2.931169 0.187663
v 0.188961 2.931169 0.437663
v 3.438961 2.931169 -2.562337
v -4.561039 -4.568831 4.687663
v -3.811039 -4.568830 -3.062338
v 2.438961 -4.568830 -3.062338
v 4.438961 -4.568830 -4.312337
v 0.188961 -4.068830 -3.562338
v 1.188961 -4.068830 -3.562338
v -3.311039 -3.568831 2.437662
v -2.311039 -3.568831 2.437662
v 3.438961 -3.568831 1.187662
v 3.688961 -3.568831 1.187662
v -3.811039 -3.568831 0.687662
v 3.438961 -3.568831 0.687662
v 3.688961 -3.568831 -0.562338
v 3.438961 -3.568831 -1.312338
v -3.561039 -3.568831 -2.562338
v 1.438961 -3.318830 -3.812338
v 2.438961 -3.318830 -3.812338
v -3.811039 -1.568831 2.437662
v -1.811039 -1.568831 2.437662
v 1.938961 -1.568831 2.187662
v -2.061039 -1.568831 0.937663
v -0.311039 -1.568831 0.437663
v -1.311039 -1.568831 0.187663
v 0.188961 -1.568831 0.437663
v 3.438961 -1.568831 -2.562338
v 3.438961 -0.318831 2.187663
v -2.061039 -0.318831 0.937663
v -1.811039 -0.318831 0.937663
v 1.938961 -0.318831 0.937663
v -1.311039 -0.318831 0.437663
v 3.688961 -0.318831 -2.562337
v -3.811039 0.931169 2.437663
v -1.811039 0.931169 2.437663
v -3.561039 0.931169 2.187663
v 1.688961 0.931169 2.437663
v 3.688961 0.931169 2.437663
v 1.938961 0.931169 2.187663
v 3.438961 0.931169 2.187663
v -0.311039 0.931169 0.437663
v -2.061039 2.181169 2.187663
v 1.688961 2.181169 2.437663
v 3.688961 2.181169 2.437663
v 3.438961 2.181169 2.187663
v -0.311039 2.181169 0.437663
v -1.311039 2.181169 0.187663
v 1.188961 2.181169 0.187663
v -3.561039 2.181169 -2.562337
v 3.688961 2.181169 -2.562337
v -1.061039 3.431169 -2.062337
v -1.311039 3.431169 -2.312337
v 1.188961 3.431169 -2.062337
v 1.938961 3.431169 -2.312337
v 3.688961 3.681169 2.437663
v 2.188961 3.681169 1.937663
v -1.561039 3.681169 -2.062337
v 1.188961 3.681169 -2.062337
v 1.438961 3.681169 -2.062337
v 1.188961 3.681169 -2.312337
v 1.938961 3.681169 -2.312337
v 2.188961 3.681169 -2.312337
v -3.811039 3.681170 -3.062337
v 3.688961 3.681170 -3.062337
v -1.061039 3.931169 -1.062337
v 2.438961 -4.568830 -3.812338
v 2.438961 -3.318831 -3.062338
v 0.938961 3.931169 -2.062337
v 0.188961 -4.568830 -3.062338
v 0.188961 -4.068830 -3.062338
v 1.188961 -4.568830 -3.062338
v 1.188961 -4.068830 -3.062338
v 1.188961 -4.568830 -3.562338
v 3.688961 -4.568830 -3.062338
v 1.688961 -4.568831 2.437662
v 3.688961 -4.568831 2.437662
v -1.811039 -4.568831 0.437662
v -0.811039 -4.568831 0.437662
v -3.811039 -4.568831 2.437662
v -1.811039 -4.568831 2.437662
v 0.688961 -4.568831 0.437662
v 1.688961 -4.568831 0.437662
v -0.811039 -4.568831 0.187662
v 0.688961 -4.568831 0.187662
v 0.938961 3.431169 -2.062337
v 0.938961 3.431169 -1.062337
v 1.438961 3.431169 -2.062337
v 1.438961 3.431169 -2.062337
v 2.188961 3.431169 -2.062337
v 2.188961 3.431169 -2.312337
v 2.438961 3.431169 -1.062337
v 2.438961 3.431169 -2.062337
v 1.188961 3.431169 -2.312337
v 1.938961 3.431169 -2.062337
v -2.561039 3.431169 -2.062337
v -2.561039 3.431169 -1.062337
v -2.061039 3.431169 -2.062337
v -2.061039 3.431169 -2.312337
v -2.311039 3.431169 -2.312337
v -1.561039 3.431169 -2.312337
v -1.561039 3.431169 -2.062337
v -1.061039 3.431169 -1.062337
v -1.311039 3.431169 -2.062337
v -2.311039 3.431169 -2.062337
vn -1.0000 -0.0000 -0.0000
vn 1.0000 -0.0000 -0.0000
vn -0.0000 -0.0000 1.0000
vn -0.0000 -0.0000 -1.0000
vn -0.0000 -1.0000 -0.0000
vn -0.0000 1.0000 -0.0000
vt 0.005900 0.500000
vt 0.013700 0.500000
vt 0.002000 0.500000
vt 0.009800 0.500000
s 1
usemtl wall.004
f 199/1/1 285/1/1 360/1/1
f 147/1/1 285/1/1 199/1/1
f 294/1/1 285/1/1 147/1/1
f 3/1/1 285/1/1 294/1/1
f 212/1/1 285/1/1 3/1/1
f 4/1/1 285/1/1 212/1/1
f 217/1/1 285/1/1 4/1/1
f 5/1/1 285/1/1 217/1/1
f 235/1/1 199/1/1 360/1/1
f 6/1/1 294/1/1 147/1/1
f 207/1/1 294/1/1 6/1/1
f 7/1/1 212/1/1 3/1/1
f 213/1/1 212/1/1 7/1/1
f 182/1/1 217/1/1 4/1/1
f 8/1/1 217/1/1 182/1/1
f 184/1/1 285/1/1 5/1/1
f 301/1/1 8/1/1 182/1/1
f 301/1/1 184/1/1 8/1/1
f 301/1/1 213/1/1 7/1/1
f 301/1/1 235/1/1 360/1/1
f 301/1/1 182/1/1 213/1/1
f 301/1/1 207/1/1 6/1/1
f 301/1/1 7/1/1 207/1/1
f 301/1/1 6/1/1 235/1/1
f 9/1/1 285/1/1 184/1/1
f 9/1/1 184/1/1 301/1/1
f 10/1/1 285/1/1 9/1/1
f 123/1/1 10/1/1 124/1/1
f 331/1/2 197/1/2 345/1/2
f 11/1/1 10/1/1 123/1/1
f 355/1/2 345/1/2 314/1/2
f 315/1/1 264/1/1 257/1/1
f 314/1/2 255/1/2 355/1/2
f 189/1/1 264/1/1 315/1/1
f 189/1/1 274/1/1 344/1/1
f 126/1/1 274/1/1 266/1/1
f 194/1/2 314/1/2 345/1/2
f 12/1/1 274/1/1 126/1/1
f 285/1/1 10/1/1 11/1/1
f 127/1/1 13/1/1 276/1/1
f 149/1/2 311/1/2 86/1/2
f 344/1/1 13/1/1 127/1/1
f 29/1/1 133/1/1 291/1/1
f 232/1/1 133/1/1 29/1/1
f 202/1/1 30/1/1 31/1/1
f 32/1/1 30/1/1 202/1/1
f 250/1/1 168/1/1 305/1/1
f 34/1/1 168/1/1 250/1/1
f 35/1/1 169/1/1 36/1/1
f 37/1/1 169/1/1 35/1/1
f 161/1/1 38/1/1 322/1/1
f 39/1/1 38/1/1 161/1/1
f 40/1/1 41/1/1 327/1/1
f 172/1/1 41/1/1 40/1/1
f 231/1/1 365/1/1 362/1/1
f 173/1/1 365/1/1 231/1/1
f 252/1/1 174/1/1 44/1/1
f 254/1/1 174/1/1 252/1/1
f 45/1/1 175/1/1 164/1/1
f 46/1/1 175/1/1 45/1/1
f 47/1/1 176/1/1 165/1/1
f 273/1/1 176/1/1 47/1/1
f 167/1/1 329/1/1 166/1/1
f 48/1/1 329/1/1 167/1/1
f 128/1/1 363/1/1 356/1/1
f 152/1/1 363/1/1 128/1/1
f 363/1/1 152/1/1 50/1/1
f 129/1/1 50/1/1 51/1/1
f 150/1/2 149/1/2 86/1/2
f 52/1/1 50/1/1 129/1/1
f 156/1/1 155/1/1 56/1/1
f 318/1/1 53/1/1 260/1/1
f 53/1/1 54/1/1 56/1/1
f 54/1/1 53/1/1 318/1/1
f 56/1/1 52/1/1 53/1/1
f 324/1/1 154/1/1 269/1/1
f 50/1/1 52/1/1 363/1/1
f 156/1/1 154/1/1 324/1/1
f 54/1/1 154/1/1 56/1/1
f 55/1/1 155/1/1 132/1/1
f 56/1/1 363/1/1 52/1/1
f 56/1/1 155/1/1 55/1/1
f 66/1/1 139/1/1 67/1/1
f 234/1/1 139/1/1 66/1/1
f 205/1/1 68/1/1 204/1/1
f 191/1/1 68/1/1 205/1/1
f 290/1/2 134/1/2 122/1/2
f 122/1/2 134/1/2 69/1/2
f 70/1/2 71/1/2 201/1/2
f 201/1/2 71/1/2 190/1/2
f 361/1/2 358/1/2 302/1/2
f 302/1/2 358/1/2 79/1/2
f 79/1/2 358/1/2 148/1/2
f 80/1/2 148/1/2 81/1/2
f 358/1/2 86/1/2 311/1/2
f 81/1/2 148/1/2 311/1/2
f 86/1/2 279/1/2 83/1/2
f 256/1/2 149/1/2 316/1/2
f 311/1/2 148/1/2 358/1/2
f 316/1/2 149/1/2 150/1/2
f 86/1/2 271/1/2 150/1/2
f 125/1/2 271/1/2 82/1/2
f 154/1/1 156/1/1 56/1/1
f 82/1/2 271/1/2 83/1/2
f 84/1/2 279/1/2 85/1/2
f 83/1/2 271/1/2 86/1/2
f 85/1/2 279/1/2 86/1/2
f 87/1/2 306/1/2 251/1/2
f 251/1/2 306/1/2 249/1/2
f 313/1/2 88/1/2 262/1/2
f 262/1/2 88/1/2 261/1/2
f 157/1/2 171/1/2 89/1/2
f 89/1/2 171/1/2 170/1/2
f 158/1/2 328/1/2 159/1/2
f 159/1/2 328/1/2 280/1/2
f 359/1/2 364/1/2 160/1/2
f 160/1/2 364/1/2 230/1/2
f 307/1/2 91/1/2 253/1/2
f 253/1/2 91/1/2 92/1/2
f 162/1/2 93/1/2 94/1/2
f 94/1/2 93/1/2 263/1/2
f 95/1/2 177/1/2 163/1/2
f 163/1/2 177/1/2 272/1/2
f 96/1/2 97/1/2 282/1/2
f 282/1/2 97/1/2 281/1/2
f 99/1/2 140/1/2 100/1/2
f 100/1/2 140/1/2 233/1/2
f 203/1/2 101/1/2 337/1/2
f 337/1/2 101/1/2 211/1/2
f 114/1/2 115/1/2 117/1/2
f 245/1/2 114/1/2 117/1/2
f 116/1/2 239/1/2 242/1/2
f 242/1/2 243/1/2 116/1/2
f 293/1/2 357/1/2 210/1/2
f 112/1/2 355/1/2 113/1/2
f 113/1/2 355/1/2 192/1/2
f 357/1/2 110/1/2 206/1/2
f 293/1/2 210/1/2 239/1/2
f 239/1/2 210/1/2 242/1/2
f 111/1/2 296/1/2 243/1/2
f 243/1/2 296/1/2 244/1/2
f 112/1/2 113/1/2 245/1/2
f 245/1/2 113/1/2 114/1/2
f 192/1/2 355/1/2 115/1/2
f 296/1/2 111/1/2 357/1/2
f 355/1/2 112/1/2 296/1/2
f 293/1/2 110/1/2 357/1/2
f 357/1/2 206/1/2 116/1/2
f 357/1/2 355/1/2 296/1/2
f 111/1/2 210/1/2 357/1/2
f 117/1/2 244/1/2 245/1/2
f 206/1/2 239/1/2 116/1/2
f 115/1/2 355/1/2 117/1/2
f 117/1/2 116/1/2 243/1/2
f 117/1/2 355/1/2 255/1/2
f 247/1/2 255/1/2 130/1/2
f 344/1/1 285/1/1 11/1/1
f 130/1/2 255/1/2 314/1/2
f 11/1/1 264/1/1 344/1/1
f 259/1/2 194/1/2 319/1/2
f 12/1/1 13/1/1 344/1/1
f 319/1/2 194/1/2 195/1/2
f 345/1/2 198/1/2 331/1/2
f 131/1/2 197/1/2 325/1/2
f 274/1/1 12/1/1 344/1/1
f 325/1/2 197/1/2 331/1/2
f 264/1/1 189/1/1 344/1/1
f 118/1/2 198/1/2 336/1/2
f 197/1/2 195/1/2 345/1/2
f 336/1/2 198/1/2 345/1/2
f 290/1/3 301/1/3 360/1/3
f 122/1/3 301/1/3 290/1/3
f 291/1/3 290/1/3 360/1/3
f 29/1/3 301/1/3 122/1/3
f 361/1/3 291/1/3 360/1/3
f 361/1/3 29/1/3 291/1/3
f 302/1/3 301/1/3 29/1/3
f 302/1/3 29/1/3 361/1/3
f 80/1/3 123/1/3 124/1/3
f 81/1/3 123/1/3 80/1/3
f 256/1/3 315/1/3 257/1/3
f 316/1/3 315/1/3 256/1/3
f 125/1/3 126/1/3 266/1/3
f 82/1/3 126/1/3 125/1/3
f 84/1/3 127/1/3 276/1/3
f 85/1/3 127/1/3 84/1/3
f 99/1/3 128/1/3 356/1/3
f 100/1/3 128/1/3 99/1/3
f 67/1/3 99/1/3 356/1/3
f 66/1/3 128/1/3 100/1/3
f 357/1/3 67/1/3 356/1/3
f 357/1/3 66/1/3 67/1/3
f 116/1/3 128/1/3 66/1/3
f 116/1/3 66/1/3 357/1/3
f 247/1/3 129/1/3 51/1/3
f 130/1/3 129/1/3 247/1/3
f 259/1/3 318/1/3 260/1/3
f 319/1/3 318/1/3 259/1/3
f 131/1/3 324/1/3 269/1/3
f 325/1/3 324/1/3 131/1/3
f 118/1/3 55/1/3 132/1/3
f 336/1/3 55/1/3 118/1/3
f 146/1/3 6/1/3 147/1/3
f 236/1/3 6/1/3 146/1/3
f 293/1/3 237/1/3 292/1/3
f 239/1/3 237/1/3 293/1/3
f 79/1/3 248/1/3 304/1/3
f 148/1/3 248/1/3 79/1/3
f 311/1/3 74/1/3 310/1/3
f 149/1/3 74/1/3 311/1/3
f 150/1/3 270/1/3 151/1/3
f 271/1/3 270/1/3 150/1/3
f 83/1/3 278/1/3 76/1/3
f 279/1/3 278/1/3 83/1/3
f 58/1/3 50/1/3 152/1/3
f 59/1/3 50/1/3 58/1/3
f 312/1/3 53/1/3 52/1/3
f 153/1/3 53/1/3 312/1/3
f 61/1/3 154/1/3 54/1/3
f 62/1/3 154/1/3 61/1/3
f 63/1/3 155/1/3 156/1/3
f 64/1/3 155/1/3 63/1/3
f 358/1/3 251/1/3 313/1/3
f 157/1/3 86/1/3 262/1/3
f 89/1/3 86/1/3 157/1/3
f 158/1/3 86/1/3 89/1/3
f 159/1/3 86/1/3 158/1/3
f 359/1/3 87/1/3 358/1/3
f 160/1/3 87/1/3 359/1/3
f 305/1/3 87/1/3 160/1/3
f 250/1/3 313/1/3 251/1/3
f 36/1/3 313/1/3 250/1/3
f 35/1/3 157/1/3 262/1/3
f 322/1/3 157/1/3 35/1/3
f 161/1/3 158/1/3 89/1/3
f 327/1/3 158/1/3 161/1/3
f 40/1/3 86/1/3 159/1/3
f 307/1/3 305/1/3 160/1/3
f 96/1/3 40/1/3 327/1/3
f 163/1/3 327/1/3 161/1/3
f 282/1/3 86/1/3 40/1/3
f 231/1/3 307/1/3 160/1/3
f 44/1/3 307/1/3 231/1/3
f 44/1/3 231/1/3 362/1/3
f 252/1/3 162/1/3 253/1/3
f 164/1/3 162/1/3 252/1/3
f 45/1/3 95/1/3 94/1/3
f 165/1/3 95/1/3 45/1/3
f 47/1/3 96/1/3 163/1/3
f 166/1/3 96/1/3 47/1/3
f 167/1/3 86/1/3 282/1/3
f 56/1/3 47/1/3 165/1/3
f 363/1/3 44/1/3 362/1/3
f 363/1/3 252/1/3 44/1/3
f 56/1/3 86/1/3 167/1/3
f 15/1/3 7/1/3 3/1/3
f 178/1/3 7/1/3 15/1/3
f 111/1/3 241/1/3 179/1/3
f 243/1/3 241/1/3 111/1/3
f 17/1/3 182/1/3 4/1/3
f 18/1/3 182/1/3 17/1/3
f 112/1/3 183/1/3 297/1/3
f 245/1/3 183/1/3 112/1/3
f 298/1/3 184/1/3 5/1/3
f 20/1/3 184/1/3 298/1/3
f 22/1/3 10/1/3 9/1/3
f 185/1/3 10/1/3 22/1/3
f 186/1/3 264/1/3 11/1/3
f 187/1/3 264/1/3 186/1/3
f 188/1/3 274/1/3 189/1/3
f 24/1/3 274/1/3 188/1/3
f 330/1/3 13/1/3 12/1/3
f 27/1/3 13/1/3 330/1/3
f 68/1/3 190/1/3 71/1/3
f 191/1/3 190/1/3 68/1/3
f 192/1/3 193/1/3 105/1/3
f 115/1/3 193/1/3 192/1/3
f 117/1/3 107/1/3 308/1/3
f 255/1/3 107/1/3 117/1/3
f 314/1/3 265/1/3 108/1/3
f 194/1/3 265/1/3 314/1/3
f 195/1/3 275/1/3 196/1/3
f 197/1/3 275/1/3 195/1/3
f 331/1/3 283/1/3 109/1/3
f 198/1/3 283/1/3 331/1/3
f 199/1/4 235/1/4 200/1/4
f 200/1/4 235/1/4 14/1/4
f 70/1/4 201/1/4 31/1/4
f 31/1/4 201/1/4 202/1/4
f 203/1/4 337/1/4 204/1/4
f 204/1/4 337/1/4 205/1/4
f 104/1/4 238/1/4 110/1/4
f 110/1/4 238/1/4 206/1/4
f 294/1/4 207/1/4 208/1/4
f 208/1/4 207/1/4 240/1/4
f 295/1/4 209/1/4 210/1/4
f 210/1/4 209/1/4 242/1/4
f 30/1/4 32/1/4 101/1/4
f 101/1/4 32/1/4 211/1/4
f 212/1/4 213/1/4 214/1/4
f 214/1/4 213/1/4 16/1/4
f 215/1/4 216/1/4 296/1/4
f 296/1/4 216/1/4 244/1/4
f 217/1/4 8/1/4 218/1/4
f 218/1/4 8/1/4 19/1/4
f 219/1/4 220/1/4 113/1/4
f 113/1/4 220/1/4 114/1/4
f 344/1/4 345/1/4 355/1/4
f 344/1/4 355/1/4 285/1/4
f 230/1/5 231/1/5 160/1/5
f 173/1/5 231/1/5 230/1/5
f 69/1/5 29/1/5 122/1/5
f 232/1/5 29/1/5 69/1/5
f 233/1/5 66/1/5 100/1/5
f 234/1/5 66/1/5 233/1/5
f 6/1/5 14/1/5 235/1/5
f 236/1/5 14/1/5 6/1/5
f 237/1/5 206/1/5 238/1/5
f 239/1/5 206/1/5 237/1/5
f 7/1/5 240/1/5 207/1/5
f 178/1/5 240/1/5 7/1/5
f 241/1/5 242/1/5 209/1/5
f 243/1/5 242/1/5 241/1/5
f 182/1/5 16/1/5 213/1/5
f 18/1/5 16/1/5 182/1/5
f 183/1/5 244/1/5 216/1/5
f 245/1/5 244/1/5 183/1/5
f 184/1/5 19/1/5 8/1/5
f 20/1/5 19/1/5 184/1/5
f 193/1/5 114/1/5 220/1/5
f 115/1/5 114/1/5 193/1/5
f 21/1/5 80/1/5 124/1/5
f 246/1/5 80/1/5 21/1/5
f 57/1/5 247/1/5 51/1/5
f 106/1/5 247/1/5 57/1/5
f 248/1/5 80/1/5 246/1/5
f 148/1/5 80/1/5 248/1/5
f 50/1/5 57/1/5 51/1/5
f 59/1/5 57/1/5 50/1/5
f 249/1/5 250/1/5 251/1/5
f 34/1/5 250/1/5 249/1/5
f 92/1/5 252/1/5 253/1/5
f 254/1/5 252/1/5 92/1/5
f 10/1/5 21/1/5 124/1/5
f 185/1/5 21/1/5 10/1/5
f 107/1/5 247/1/5 106/1/5
f 255/1/5 247/1/5 107/1/5
f 136/1/5 256/1/5 257/1/5
f 73/1/5 256/1/5 136/1/5
f 258/1/5 259/1/5 260/1/5
f 142/1/5 259/1/5 258/1/5
f 74/1/5 256/1/5 73/1/5
f 149/1/5 256/1/5 74/1/5
f 53/1/5 258/1/5 260/1/5
f 153/1/5 258/1/5 53/1/5
f 261/1/5 35/1/5 262/1/5
f 37/1/5 35/1/5 261/1/5
f 263/1/5 45/1/5 94/1/5
f 46/1/5 45/1/5 263/1/5
f 264/1/5 136/1/5 257/1/5
f 187/1/5 136/1/5 264/1/5
f 265/1/5 259/1/5 142/1/5
f 194/1/5 259/1/5 265/1/5
f 138/1/5 125/1/5 266/1/5
f 267/1/5 125/1/5 138/1/5
f 268/1/5 131/1/5 269/1/5
f 143/1/5 131/1/5 268/1/5
f 270/1/5 125/1/5 267/1/5
f 271/1/5 125/1/5 270/1/5
f 154/1/5 268/1/5 269/1/5
f 62/1/5 268/1/5 154/1/5
f 170/1/5 161/1/5 89/1/5
f 39/1/5 161/1/5 170/1/5
f 272/1/5 47/1/5 163/1/5
f 273/1/5 47/1/5 272/1/5
f 274/1/5 138/1/5 266/1/5
f 24/1/5 138/1/5 274/1/5
f 275/1/5 131/1/5 143/1/5
f 197/1/5 131/1/5 275/1/5
f 25/1/5 84/1/5 276/1/5
f 77/1/5 84/1/5 25/1/5
f 144/1/5 118/1/5 132/1/5
f 277/1/5 118/1/5 144/1/5
f 278/1/5 84/1/5 77/1/5
f 279/1/5 84/1/5 278/1/5
f 155/1/5 144/1/5 132/1/5
f 64/1/5 144/1/5 155/1/5
f 280/1/5 40/1/5 159/1/5
f 172/1/5 40/1/5 280/1/5
f 281/1/5 167/1/5 282/1/5
f 48/1/5 167/1/5 281/1/5
f 13/1/5 25/1/5 276/1/5
f 27/1/5 25/1/5 13/1/5
f 283/1/5 118/1/5 277/1/5
f 198/1/5 118/1/5 283/1/5
f 290/1/6 291/1/6 134/1/6
f 134/1/6 291/1/6 133/1/6
f 99/1/6 67/1/6 140/1/6
f 140/1/6 67/1/6 139/1/6
f 199/1/6 200/1/6 147/1/6
f 147/1/6 200/1/6 146/1/6
f 104/1/6 110/1/6 292/1/6
f 292/1/6 110/1/6 293/1/6
f 294/1/6 208/1/6 3/1/6
f 3/1/6 208/1/6 15/1/6
f 295/1/6 210/1/6 179/1/6
f 179/1/6 210/1/6 111/1/6
f 212/1/6 214/1/6 4/1/6
f 4/1/6 214/1/6 17/1/6
f 215/1/6 296/1/6 297/1/6
f 297/1/6 296/1/6 112/1/6
f 217/1/6 218/1/6 5/1/6
f 5/1/6 218/1/6 298/1/6
f 219/1/6 113/1/6 105/1/6
f 105/1/6 113/1/6 192/1/6
f 301/1/6 302/1/6 23/1/6
f 23/1/6 302/1/6 135/1/6
f 128/1/6 116/1/6 303/1/6
f 303/1/6 116/1/6 141/1/6
f 135/1/6 302/1/6 304/1/6
f 304/1/6 302/1/6 79/1/6
f 128/1/6 303/1/6 152/1/6
f 152/1/6 303/1/6 58/1/6
f 87/1/6 305/1/6 306/1/6
f 306/1/6 305/1/6 168/1/6
f 307/1/6 44/1/6 91/1/6
f 91/1/6 44/1/6 174/1/6
f 301/1/6 23/1/6 9/1/6
f 9/1/6 23/1/6 22/1/6
f 141/1/6 116/1/6 308/1/6
f 308/1/6 116/1/6 117/1/6
f 123/1/6 81/1/6 137/1/6
f 137/1/6 81/1/6 72/1/6
f 129/1/6 130/1/6 60/1/6
f 60/1/6 130/1/6 309/1/6
f 72/1/6 81/1/6 310/1/6
f 310/1/6 81/1/6 311/1/6
f 129/1/6 60/1/6 52/1/6
f 52/1/6 60/1/6 312/1/6
f 313/1/6 36/1/6 88/1/6
f 88/1/6 36/1/6 169/1/6
f 162/1/6 164/1/6 93/1/6
f 93/1/6 164/1/6 175/1/6
f 123/1/6 137/1/6 11/1/6
f 11/1/6 137/1/6 186/1/6
f 309/1/6 130/1/6 108/1/6
f 108/1/6 130/1/6 314/1/6
f 315/1/6 316/1/6 317/1/6
f 317/1/6 316/1/6 75/1/6
f 318/1/6 319/1/6 320/1/6
f 320/1/6 319/1/6 321/1/6
f 75/1/6 316/1/6 151/1/6
f 151/1/6 316/1/6 150/1/6
f 318/1/6 320/1/6 54/1/6
f 54/1/6 320/1/6 61/1/6
f 157/1/6 322/1/6 171/1/6
f 171/1/6 322/1/6 38/1/6
f 95/1/6 165/1/6 177/1/6
f 177/1/6 165/1/6 176/1/6
f 315/1/6 317/1/6 189/1/6
f 189/1/6 317/1/6 188/1/6
f 321/1/6 319/1/6 196/1/6
f 196/1/6 319/1/6 195/1/6
f 126/1/6 82/1/6 26/1/6
f 26/1/6 82/1/6 323/1/6
f 324/1/6 325/1/6 145/1/6
f 145/1/6 325/1/6 326/1/6
f 323/1/6 82/1/6 76/1/6
f 76/1/6 82/1/6 83/1/6
f 324/1/6 145/1/6 156/1/6
f 156/1/6 145/1/6 63/1/6
f 158/1/6 327/1/6 328/1/6
f 328/1/6 327/1/6 41/1/6
f 96/1/6 166/1/6 97/1/6
f 97/1/6 166/1/6 329/1/6
f 126/1/6 26/1/6 12/1/6
f 12/1/6 26/1/6 330/1/6
f 326/1/6 325/1/6 109/1/6
f 109/1/6 325/1/6 331/1/6
f 70/1/6 31/1/6 30/1/6
f 203/1/6 204/1/6 101/1/6
f 127/1/6 85/1/6 201/1/6
f 201/1/6 85/1/6 202/1/6
f 55/1/6 336/1/6 337/1/6
f 337/1/6 336/1/6 205/1/6
f 202/1/6 85/1/6 86/1/6
f 55/1/6 337/1/6 56/1/6
f 202/1/6 86/1/6 32/1/6
f 86/1/6 56/1/6 32/1/6
f 56/1/6 337/1/6 211/1/6
f 32/1/6 56/1/6 211/1/6
f 127/1/6 201/1/6 190/1/6
f 205/1/6 336/1/6 191/1/6
f 127/1/6 190/1/6 344/1/6
f 190/1/6 191/1/6 344/1/6
f 191/1/6 336/1/6 345/1/6
f 344/1/6 191/1/6 345/1/6
f 71/1/6 30/1/6 101/1/6
f 101/1/6 68/1/6 71/1/6
f 71/1/6 70/1/6 30/1/6
f 101/1/6 204/1/6 68/1/6
f 117/1/2 243/1/2 244/1/2
f 360/1/5 358/1/5 361/1/5
f 357/1/5 363/1/5 355/1/5
f 363/1/5 365/1/5 355/1/5
f 358/1/5 364/1/5 359/1/5
f 365/1/5 285/1/5 355/1/5
f 360/1/5 285/1/5 358/1/5
f 357/1/5 356/1/5 363/1/5
f 363/1/5 362/1/5 365/1/5
f 358/1/5 285/1/5 364/1/5
f 365/1/5 364/2/5 285/1/5
f 95/1/3 161/1/3 322/1/3
f 94/1/3 322/1/3 35/1/3
f 162/1/3 35/1/3 36/1/3
f 162/1/3 250/1/3 253/1/3
f 253/1/3 305/1/3 307/1/3
f 262/1/3 86/1/3 313/1/3
f 358/1/3 87/1/3 251/1/3
f 313/1/3 86/1/3 358/1/3
f 96/1/3 282/1/3 40/1/3
f 163/1/3 96/1/3 327/1/3
f 165/1/3 45/1/3 56/1/3
f 164/1/3 252/1/3 363/1/3
f 363/1/3 56/1/3 164/1/3
f 166/1/3 47/1/3 56/1/3
f 56/1/3 167/1/3 166/1/3
f 45/1/3 164/1/3 56/1/3
f 95/1/3 163/1/3 161/1/3
f 94/1/3 95/1/3 322/1/3
f 162/1/3 94/1/3 35/1/3
f 162/1/3 36/1/3 250/1/3
f 253/1/3 250/1/3 305/1/3
f 195/1/2 194/1/2 345/1/2
usemtl grass.004
f 284/3/1 1/3/1 121/3/1
f 2/3/1 1/3/1 284/3/1
f 119/3/2 229/3/2 120/3/2
f 120/3/2 229/3/2 287/3/2
f 119/3/3 284/3/3 121/3/3
f 120/3/3 284/3/3 119/3/3
f 1/3/4 2/3/4 229/3/4
f 229/3/4 2/3/4 287/3/4
f 1/3/5 119/3/5 121/3/5
f 229/3/5 119/3/5 1/3/5
f 287/3/6 284/3/6 120/3/6
f 287/3/6 2/3/6 284/3/6
usemtl objects.004
f 180/4/1 376/4/1 377/4/1
f 28/4/1 376/4/1 180/4/1
f 33/1/1 380/1/1 385/1/1
f 223/1/1 380/1/1 33/1/1
f 338/1/1 381/1/1 382/1/1
f 224/1/1 381/1/1 338/1/1
f 351/1/1 42/1/1 350/1/1
f 288/1/1 42/1/1 351/1/1
f 43/4/1 366/4/1 367/4/1
f 349/4/1 366/4/1 43/4/1
f 339/1/1 374/1/1 334/1/1
f 341/1/1 374/1/1 339/1/1
f 49/1/1 228/1/1 227/1/1
f 299/1/1 228/1/1 49/1/1
f 65/1/1 335/1/1 375/1/1
f 342/1/1 335/1/1 65/1/1
f 378/1/2 379/1/2 221/1/2
f 221/1/2 379/1/2 78/1/2
f 384/1/2 333/1/2 222/1/2
f 222/1/2 333/1/2 225/1/2
f 383/4/2 332/4/2 346/4/2
f 346/4/2 332/4/2 90/4/2
f 352/1/2 354/1/2 353/1/2
f 353/1/2 354/1/2 289/1/2
f 368/1/2 98/1/2 340/1/2
f 340/1/2 98/1/2 226/1/2
f 370/1/2 371/1/2 102/1/2
f 102/1/2 371/1/2 343/1/2
f 286/1/2 347/1/2 348/1/2
f 348/1/2 347/1/2 300/1/2
f 372/4/2 373/4/2 181/4/2
f 181/4/2 373/4/2 103/4/2
f 383/4/3 180/4/3 377/4/3
f 346/4/3 180/4/3 383/4/3
f 372/4/3 43/4/3 367/4/3
f 181/4/3 43/4/3 372/4/3
f 376/4/4 28/4/4 385/4/4
f 385/4/4 28/4/4 33/4/4
f 33/4/4 28/4/4 221/4/4
f 378/4/4 221/4/4 382/4/4
f 221/4/4 28/4/4 338/4/4
f 382/4/4 221/4/4 338/4/4
f 338/4/4 28/4/4 222/4/4
f 384/4/4 222/4/4 332/4/4
f 222/4/4 28/4/4 90/4/4
f 332/4/4 222/4/4 90/4/4
f 366/4/4 349/4/4 334/4/4
f 334/4/4 349/4/4 339/4/4
f 339/4/4 349/4/4 340/4/4
f 369/4/4 340/4/4 375/4/4
f 340/4/4 349/4/4 65/4/4
f 375/4/4 340/4/4 65/4/4
f 65/4/4 349/4/4 102/4/4
f 370/4/4 102/4/4 373/4/4
f 102/4/4 349/4/4 103/4/4
f 373/4/4 102/4/4 103/4/4
f 380/1/4 223/1/4 379/1/4
f 379/1/4 223/1/4 78/1/4
f 381/1/4 224/1/4 333/1/4
f 333/1/4 224/1/4 225/1/4
f 374/1/4 341/1/4 98/1/4
f 98/1/4 341/1/4 226/1/4
f 335/1/4 342/1/4 371/1/4
f 371/1/4 342/1/4 343/1/4
f 42/1/4 288/1/4 354/1/4
f 354/1/4 288/1/4 289/1/4
f 228/1/4 299/1/4 347/1/4
f 347/1/4 299/1/4 300/1/4
f 351/1/6 353/1/6 288/1/6
f 288/1/6 353/1/6 289/1/6
f 49/1/6 348/1/6 299/1/6
f 299/1/6 348/1/6 300/1/6
f 33/1/6 221/1/6 223/1/6
f 223/1/6 221/1/6 78/1/6
f 338/1/6 222/1/6 224/1/6
f 224/1/6 222/1/6 225/1/6
f 339/1/6 340/1/6 341/1/6
f 341/1/6 340/1/6 226/1/6
f 65/1/6 102/1/6 342/1/6
f 342/1/6 102/1/6 343/1/6
f 180/4/6 346/4/6 28/4/6
f 28/4/6 346/4/6 90/4/6
f 43/4/6 181/4/6 349/4/6
f 349/4/6 181/4/6 103/4/6
usemtl windows.004
f 14/2/1 146/2/1 200/2/1
f 236/2/1 146/2/1 14/2/1
f 240/2/1 15/2/1 208/2/1
f 178/2/1 15/2/1 240/2/1
f 16/2/1 17/2/1 214/2/1
f 18/2/1 17/2/1 16/2/1
f 19/2/1 298/2/1 218/2/1
f 20/2/1 298/2/1 19/2/1
f 21/4/1 22/4/1 23/4/1
f 185/4/1 22/4/1 21/4/1
f 136/4/1 186/4/1 137/4/1
f 187/4/1 186/4/1 136/4/1
f 138/4/1 188/4/1 317/4/1
f 24/4/1 188/4/1 138/4/1
f 25/4/1 330/4/1 26/4/1
f 27/4/1 330/4/1 25/4/1
f 57/4/1 58/4/1 303/4/1
f 59/4/1 58/4/1 57/4/1
f 258/4/1 312/4/1 60/4/1
f 153/4/1 312/4/1 258/4/1
f 268/4/1 61/4/1 320/4/1
f 62/4/1 61/4/1 268/4/1
f 144/4/1 63/4/1 145/4/1
f 64/4/1 63/4/1 144/4/1
f 135/4/2 304/4/2 246/4/2
f 246/4/2 304/4/2 248/4/2
f 72/4/2 310/4/2 73/4/2
f 73/4/2 310/4/2 74/4/2
f 75/4/2 151/4/2 267/4/2
f 267/4/2 151/4/2 270/4/2
f 323/4/2 76/4/2 77/4/2
f 77/4/2 76/4/2 278/4/2
f 104/2/2 292/2/2 238/2/2
f 238/2/2 292/2/2 237/2/2
f 295/2/2 179/2/2 209/2/2
f 209/2/2 179/2/2 241/2/2
f 215/2/2 297/2/2 216/2/2
f 216/2/2 297/2/2 183/2/2
f 219/2/2 105/2/2 220/2/2
f 220/2/2 105/2/2 193/2/2
f 141/4/2 308/4/2 106/4/2
f 106/4/2 308/4/2 107/4/2
f 309/4/2 108/4/2 142/4/2
f 142/4/2 108/4/2 265/4/2
f 321/4/2 196/4/2 143/4/2
f 143/4/2 196/4/2 275/4/2
f 326/4/2 109/4/2 277/4/2
f 277/4/2 109/4/2 283/4/2
f 133/2/3 69/2/3 134/2/3
f 232/2/3 69/2/3 133/2/3
f 135/4/3 21/4/3 23/4/3
f 246/4/3 21/4/3 135/4/3
f 72/4/3 136/4/3 137/4/3
f 73/4/3 136/4/3 72/4/3
f 75/4/3 138/4/3 317/4/3
f 267/4/3 138/4/3 75/4/3
f 323/4/3 25/4/3 26/4/3
f 77/4/3 25/4/3 323/4/3
f 139/2/3 233/2/3 140/2/3
f 234/2/3 233/2/3 139/2/3
f 141/4/3 57/4/3 303/4/3
f 106/4/3 57/4/3 141/4/3
f 309/4/3 258/4/3 60/4/3
f 142/4/3 258/4/3 309/4/3
f 321/4/3 268/4/3 320/4/3
f 143/4/3 268/4/3 321/4/3
f 326/4/3 144/4/3 145/4/3
f 277/4/3 144/4/3 326/4/3
f 168/2/3 249/2/3 306/2/3
f 34/2/3 249/2/3 168/2/3
f 169/2/3 261/2/3 88/2/3
f 37/2/3 261/2/3 169/2/3
f 38/2/3 170/2/3 171/2/3
f 39/2/3 170/2/3 38/2/3
f 41/2/3 280/2/3 328/2/3
f 172/2/3 280/2/3 41/2/3
f 365/2/3 230/2/3 364/2/3
f 173/2/3 230/2/3 365/2/3
f 174/2/3 92/2/3 91/2/3
f 254/2/3 92/2/3 174/2/3
f 175/2/3 263/2/3 93/2/3
f 46/2/3 263/2/3 175/2/3
f 176/2/3 272/2/3 177/2/3
f 273/2/3 272/2/3 176/2/3
f 329/2/3 281/2/3 97/2/3
f 48/2/3 281/2/3 329/2/3
