# Blender 5.0.1
# www.blender.org
mtllib 2_industrial.mtl
o 2
v -4.681372 -4.764707 4.289217
v -2.931372 3.985294 1.789218
v -2.681372 3.735294 1.539218
v -2.181372 3.735294 1.539218
v -0.681372 -3.514707 3.289216
v -0.681372 -4.264707 3.039216
v -0.681372 -4.264707 3.289216
v -0.681372 -2.014706 3.289216
v -0.681372 -2.764706 3.039216
v -0.681372 -2.764706 3.289216
v 1.318628 3.735294 -1.960782
v 1.318628 3.735294 -2.210782
v 1.318628 3.735294 -2.460782
v 1.318628 3.735294 -2.710782
v 2.818628 3.485295 -3.210782
v -3.181372 -4.264707 3.289216
v -3.181372 -3.514707 3.289216
v -3.181372 -2.764706 3.289216
v -3.181372 -2.014706 3.289216
v -3.181372 -2.014706 3.039216
v -3.181372 0.485294 3.289217
v -3.181372 3.485295 -3.210782
v -2.431372 3.735294 1.789218
v -1.931372 3.735294 1.789218
v -1.681372 3.985294 1.789218
v -1.431372 -4.264706 -4.460783
v -0.431372 -2.014706 2.789216
v -0.431372 -2.014706 0.289216
v -0.431372 2.735294 3.039217
v -0.181372 -2.764706 2.789216
v -0.181372 -1.014706 -0.210783
v -0.181372 1.985294 3.289217
v -0.181372 3.735293 3.289218
v 3.068628 -3.764706 -0.710784
v 3.068628 -3.764706 -3.210784
v 3.068628 0.485294 -3.210784
v 3.318628 -3.764706 -3.210784
v 3.318628 -1.014706 -3.210784
v 3.318628 -0.264706 -3.210784
v 3.318628 -0.264706 -0.210783
v 3.318628 0.485294 -0.210783
v 3.318628 2.735294 -3.210782
v 4.318628 -5.014707 4.289217
v 4.318628 -5.014706 -4.710783
v -4.681372 -5.014707 4.289217
v -3.181372 -0.264706 3.289217
v -3.181372 1.985294 3.289217
v -3.181372 2.735294 3.289217
v -0.181372 -1.014706 3.289217
v -0.181372 -0.264706 3.289217
v -0.181372 1.235294 3.289217
v -0.681372 -3.514706 3.039216
v -0.431372 -1.014706 3.039217
v -0.431372 -0.264706 3.039217
v -3.181372 1.235294 3.039217
v -2.931372 3.985294 2.539218
v -1.681372 3.985294 2.539218
v -0.181372 -4.264706 0.289216
v -0.431372 -3.514706 0.289216
v -0.431372 -4.264706 0.289216
v -0.181372 -3.514706 0.289216
v -0.431372 -2.764706 0.289216
v -0.181372 -2.014706 0.289216
v 0.568628 -2.264706 -0.210784
v 2.568628 -2.264706 -0.210784
v -0.181372 -0.264706 -0.210783
v 3.318628 1.235294 -0.210783
v -0.181372 1.985294 -0.210783
v -0.181372 1.235294 -0.210783
v 3.318628 1.985294 -0.210783
v -0.181372 3.735294 -0.210783
v -0.181372 2.735294 -0.210783
v 0.568628 -2.264706 -0.460784
v 2.568628 -2.264706 -0.460784
v 3.068628 -1.014706 -0.460783
v -0.431372 -0.264706 -0.460783
v 3.068628 -0.264706 -0.460783
v -0.431372 1.235294 -0.460783
v -0.431372 0.485294 -0.460783
v -0.431372 1.985294 -0.460783
v 1.568628 3.985294 -1.710782
v 1.568628 3.735294 -1.960782
v 1.568628 3.735294 -2.460782
v 2.818628 3.735295 -3.210782
v 3.318628 -2.264706 -3.210784
v 3.068628 -0.264706 -3.210784
v 3.068628 -1.014706 -3.210784
v 3.318628 0.485294 -3.210784
v 3.068628 1.235294 -3.210784
v 3.318628 1.985294 -3.210782
v 3.068628 2.735294 -3.210782
v -0.681372 3.485293 2.789218
v -0.181372 -4.264706 2.789216
v -0.431372 -2.764706 2.789216
v -2.681372 -4.264706 -3.710784
v -1.431372 -4.764706 -3.710783
v 3.318628 -2.264706 -0.710784
v 1.568628 3.735294 -2.210782
v 1.568628 3.985294 -2.960782
v 2.318628 3.985294 -2.960782
v -3.681372 3.735295 -3.710782
v 0.318628 -4.264706 -3.710784
v 3.318628 3.735295 -3.710782
v 0.318628 -4.264706 -4.460783
v 1.568628 -4.264706 -4.460783
v -4.681372 -4.764706 -4.710783
v -4.681372 -5.014706 -4.710783
v -3.181372 -3.514706 3.039216
v -0.181372 -3.514706 2.789216
v -0.431372 -3.514706 2.789216
v 3.068628 -2.264706 -3.210784
v 3.068628 -2.264706 -0.710784
v -0.681372 -2.014706 3.039216
v -0.181372 -2.014706 2.789216
v -3.181372 -0.264706 3.039217
v -3.181372 1.235294 3.289217
v -0.431372 1.235294 3.039217
v 3.068628 1.235294 -0.460783
v 3.318628 1.235294 -3.210784
v -3.181372 2.735294 3.039217
v -0.181372 2.735294 3.289217
v -0.431372 2.735294 -0.460783
v 3.318628 2.735294 -0.210783
v 3.068628 2.735294 -0.460783
v 4.318628 -4.764707 4.289217
v 2.568628 -4.764706 -0.210784
v 4.318628 -4.764706 -4.710783
v -3.181372 -4.264707 3.039216
v -0.431372 -4.264706 2.789216
v -2.681372 -4.264706 -4.460783
v 3.318628 -3.764706 -0.710784
v -3.181372 -2.764706 3.039216
v -0.181372 -2.764706 0.289216
v -3.181372 -1.014706 3.289217
v -3.181372 -1.014706 3.039217
v -0.431372 -1.014706 -0.460783
v 3.318628 -1.014706 -0.210783
v -0.181372 0.485294 3.289217
v -3.181372 0.485294 3.039217
v -0.431372 0.485294 3.039217
v -0.181372 0.485294 -0.210783
v 3.068628 0.485294 -0.460783
v -3.181372 1.985294 3.039217
v -0.431372 1.985294 3.039217
v 3.068628 1.985294 -0.460783
v 3.068628 1.985294 -3.210782
v -3.181372 3.485293 2.789218
v -1.431372 -4.264706 -3.710784
v -2.431372 3.485294 1.539218
v 0.318628 -4.764706 -3.710783
v -1.931372 3.485294 1.539218
v -0.681372 3.485294 -0.710783
v 2.818628 3.485294 -0.710783
v 1.318628 3.485294 -1.960782
v -3.681372 3.735293 3.289218
v -3.181372 3.735293 2.789218
v -0.681372 3.735293 2.789218
v -2.681372 3.735294 1.789218
v -2.431372 3.735294 1.539218
v -2.181372 3.735294 1.789218
v -1.931372 3.735294 1.539218
v -0.681372 3.735294 -0.710782
v 3.318628 3.735294 -0.210783
v 2.818628 3.735294 -0.710782
v 1.568628 3.735294 -2.710782
v -3.181372 3.735295 -3.210782
v 2.318628 3.985294 -1.710782
v -3.681372 -4.764706 -3.710783
v -2.681372 -4.764706 -3.710783
v -0.181372 -4.764707 3.289217
v -0.181372 -4.764706 -0.210784
v 3.318628 -4.764706 -3.710783
v 1.568628 -4.764706 -4.460783
v 0.318628 -4.764706 -4.460783
v -3.681372 -4.764707 3.289217
v -2.681372 -4.764706 -4.460783
v -1.431372 -4.764706 -4.460783
v 3.318628 -4.764706 -0.210784
v 0.568628 -4.764706 -0.460784
v 2.568628 -4.764706 -0.460784
v 0.568628 -4.764706 -0.210784
v 2.318628 3.485294 -1.710782
v 2.318628 3.485294 -2.960782
v 1.568628 3.485294 -1.960782
v 1.568628 3.485294 -1.710782
v 1.568628 3.485294 -2.960782
v 1.568628 3.485294 -2.710782
v 1.318628 3.485294 -2.210782
v 1.318628 3.485294 -2.710782
v 1.318628 3.485294 -2.460782
v 1.568628 3.485294 -2.460782
v 1.568628 3.485294 -2.210782
v -2.181372 3.485294 1.789218
v -2.181372 3.485294 1.539218
v 1.568628 -4.264706 -3.710784
v -2.931372 3.485294 1.789218
v -2.931372 3.485294 2.539218
v -1.931372 3.485294 1.789218
v -1.681372 3.485294 1.789218
v -2.681372 3.485294 1.789218
v -2.431372 3.485294 1.789218
v -1.681372 3.485294 2.539218
v -2.681372 3.485294 1.539218
v 1.568628 -4.764706 -3.710783
vn -1.0000 -0.0000 -0.0000
vn 1.0000 -0.0000 -0.0000
vn -0.0000 -0.0000 1.0000
vn -0.0000 -1.0000 -0.0000
vn -0.0000 -0.0000 -1.0000
vn -0.0000 1.0000 -0.0000
vt 0.005900 0.500000
vt 0.002000 0.500000
vt 0.013700 0.500000
vt 0.009800 0.500000
s 1
usemtl wall.001
f 155/1/1 168/1/1 175/1/1
f 101/1/1 168/1/1 155/1/1
f 5/1/1 6/1/1 7/1/1
f 52/1/1 6/1/1 5/1/1
f 8/1/1 9/1/1 10/1/1
f 113/1/1 9/1/1 8/1/1
f 157/1/1 152/1/1 92/1/1
f 162/1/1 152/1/1 157/1/1
f 65/1/1 180/1/1 126/1/1
f 74/1/1 180/1/1 65/1/1
f 164/1/1 15/1/1 153/1/1
f 84/1/1 15/1/1 164/1/1
f 16/1/2 128/1/2 17/1/2
f 17/1/2 128/1/2 108/1/2
f 18/1/2 132/1/2 19/1/2
f 19/1/2 132/1/2 20/1/2
f 134/1/2 135/1/2 46/1/2
f 46/1/2 135/1/2 115/1/2
f 21/1/2 139/1/2 116/1/2
f 116/1/2 139/1/2 55/1/2
f 47/1/2 143/1/2 48/1/2
f 48/1/2 143/1/2 120/1/2
f 147/1/2 22/1/2 156/1/2
f 156/1/2 22/1/2 166/1/2
f 170/1/2 171/1/2 93/1/2
f 93/1/2 171/1/2 58/1/2
f 47/1/3 155/1/3 116/1/3
f 58/1/2 171/1/2 61/1/2
f 116/1/3 155/1/3 21/1/3
f 109/1/2 61/1/2 30/1/2
f 61/1/2 171/1/2 133/1/2
f 30/1/2 61/1/2 133/1/2
f 46/1/3 21/1/3 155/1/3
f 133/1/2 171/1/2 63/1/2
f 46/1/3 155/1/3 175/1/3
f 114/1/2 63/1/2 49/1/2
f 63/1/2 171/1/2 31/1/2
f 49/1/2 63/1/2 31/1/2
f 50/1/2 66/1/2 138/1/2
f 138/1/2 66/1/2 141/1/2
f 51/1/2 69/1/2 32/1/2
f 32/1/2 69/1/2 68/1/2
f 121/1/2 72/1/2 33/1/2
f 33/1/2 72/1/2 71/1/2
f 181/1/2 179/1/2 64/1/2
f 64/1/2 179/1/2 73/1/2
f 178/1/2 172/1/2 131/1/2
f 131/1/2 172/1/2 37/1/2
f 178/1/2 131/1/2 97/1/2
f 10/1/3 5/1/3 170/1/3
f 178/1/2 97/1/2 137/1/2
f 97/1/2 85/1/2 137/1/2
f 49/1/3 8/1/3 10/1/3
f 137/1/2 85/1/2 38/1/2
f 103/1/2 88/1/2 39/1/2
f 40/1/2 39/1/2 41/1/2
f 30/1/2 114/1/2 49/1/2
f 41/1/2 39/1/2 88/1/2
f 171/1/4 175/1/4 168/1/4
f 67/1/2 119/1/2 70/1/2
f 93/1/2 109/1/2 170/1/2
f 70/1/2 119/1/2 90/1/2
f 175/1/3 16/1/3 17/1/3
f 123/1/2 42/1/2 163/1/2
f 7/1/3 170/1/3 5/1/3
f 163/1/2 42/1/2 103/1/2
f 90/1/2 119/1/2 103/1/2
f 38/1/2 85/1/2 172/1/2
f 172/1/2 103/1/2 39/1/2
f 48/1/3 155/1/3 47/1/3
f 18/1/3 19/1/3 175/1/3
f 103/1/2 119/1/2 88/1/2
f 85/1/2 37/1/2 172/1/2
f 103/1/2 42/1/2 90/1/2
f 175/1/3 134/1/3 46/1/3
f 39/1/2 38/1/2 172/1/2
f 7/1/3 16/1/3 175/1/3
f 5/1/3 18/1/3 17/1/3
f 10/1/3 18/1/3 5/1/3
f 8/1/3 134/1/3 19/1/3
f 170/1/3 7/1/3 175/1/3
f 170/1/3 49/1/3 10/1/3
f 175/1/3 17/1/3 18/1/3
f 175/1/3 19/1/3 134/1/3
f 49/1/3 134/1/3 8/1/3
f 30/1/2 170/1/2 109/1/2
f 50/1/3 21/1/3 46/1/3
f 138/1/3 21/1/3 50/1/3
f 51/1/3 47/1/3 116/1/3
f 32/1/3 47/1/3 51/1/3
f 121/1/3 155/1/3 48/1/3
f 33/1/3 155/1/3 121/1/3
f 58/1/3 59/1/3 60/1/3
f 61/1/3 59/1/3 58/1/3
f 133/1/3 28/1/3 62/1/3
f 63/1/3 28/1/3 133/1/3
f 181/1/3 31/1/3 171/1/3
f 64/1/3 31/1/3 181/1/3
f 65/1/3 31/1/3 64/1/3
f 178/1/3 65/1/3 126/1/3
f 137/1/3 31/1/3 65/1/3
f 137/1/3 65/1/3 178/1/3
f 40/1/3 141/1/3 66/1/3
f 41/1/3 141/1/3 40/1/3
f 67/1/3 68/1/3 69/1/3
f 70/1/3 68/1/3 67/1/3
f 123/1/3 71/1/3 72/1/3
f 163/1/3 71/1/3 123/1/3
f 15/1/3 166/1/3 22/1/3
f 84/1/3 166/1/3 15/1/3
f 37/1/3 111/1/3 35/1/3
f 85/1/3 111/1/3 37/1/3
f 38/1/3 86/1/3 87/1/3
f 39/1/3 86/1/3 38/1/3
f 88/1/3 89/1/3 36/1/3
f 119/1/3 89/1/3 88/1/3
f 90/1/3 91/1/3 146/1/3
f 42/1/3 91/1/3 90/1/3
f 147/1/5 156/1/5 92/1/5
f 92/1/5 156/1/5 157/1/5
f 129/1/5 110/1/5 93/1/5
f 93/1/5 110/1/5 109/1/5
f 94/1/5 27/1/5 30/1/5
f 30/1/5 27/1/5 114/1/5
f 152/1/5 162/1/5 153/1/5
f 153/1/5 162/1/5 164/1/5
f 34/1/5 112/1/5 131/1/5
f 131/1/5 112/1/5 97/1/5
f 168/1/5 101/1/5 172/1/5
f 172/1/5 101/1/5 103/1/5
f 49/1/2 170/1/2 30/1/2
f 108/1/4 5/1/4 17/1/4
f 52/1/4 5/1/4 108/1/4
f 59/1/4 109/1/4 110/1/4
f 61/1/4 109/1/4 59/1/4
f 73/1/4 65/1/4 64/1/4
f 74/1/4 65/1/4 73/1/4
f 111/1/4 97/1/4 112/1/4
f 85/1/4 97/1/4 111/1/4
f 20/1/4 8/1/4 19/1/4
f 113/1/4 8/1/4 20/1/4
f 28/1/4 114/1/4 27/1/4
f 63/1/4 114/1/4 28/1/4
f 115/1/4 50/1/4 46/1/4
f 54/1/4 50/1/4 115/1/4
f 66/1/4 50/1/4 54/1/4
f 76/1/4 66/1/4 54/1/4
f 76/1/4 40/1/4 66/1/4
f 77/1/4 40/1/4 76/1/4
f 86/1/4 40/1/4 77/1/4
f 39/1/4 40/1/4 86/1/4
f 55/1/4 51/1/4 116/1/4
f 117/1/4 51/1/4 55/1/4
f 69/1/4 51/1/4 117/1/4
f 78/1/4 69/1/4 117/1/4
f 78/1/4 67/1/4 69/1/4
f 118/1/4 67/1/4 78/1/4
f 119/1/4 67/1/4 89/1/4
f 120/1/4 121/1/4 48/1/4
f 29/1/4 121/1/4 120/1/4
f 72/1/4 121/1/4 29/1/4
f 122/1/4 72/1/4 29/1/4
f 122/1/4 123/1/4 72/1/4
f 124/1/4 123/1/4 122/1/4
f 91/1/4 123/1/4 124/1/4
f 42/1/4 123/1/4 91/1/4
f 16/1/6 7/1/6 128/1/6
f 128/1/6 7/1/6 6/1/6
f 129/1/6 93/1/6 60/1/6
f 60/1/6 93/1/6 58/1/6
f 34/1/6 131/1/6 35/1/6
f 35/1/6 131/1/6 37/1/6
f 18/1/6 10/1/6 132/1/6
f 132/1/6 10/1/6 9/1/6
f 94/1/6 30/1/6 62/1/6
f 62/1/6 30/1/6 133/1/6
f 134/1/6 49/1/6 135/1/6
f 135/1/6 49/1/6 53/1/6
f 53/1/6 49/1/6 31/1/6
f 53/1/6 31/1/6 136/1/6
f 31/1/6 137/1/6 136/1/6
f 136/1/6 137/1/6 75/1/6
f 75/1/6 137/1/6 87/1/6
f 87/1/6 137/1/6 38/1/6
f 21/1/6 138/1/6 139/1/6
f 139/1/6 138/1/6 140/1/6
f 140/1/6 138/1/6 141/1/6
f 140/1/6 141/1/6 79/1/6
f 141/1/6 41/1/6 79/1/6
f 79/1/6 41/1/6 142/1/6
f 142/1/6 41/1/6 36/1/6
f 36/1/6 41/1/6 88/1/6
f 47/1/6 32/1/6 143/1/6
f 143/1/6 32/1/6 144/1/6
f 144/1/6 32/1/6 68/1/6
f 144/1/6 68/1/6 80/1/6
f 68/1/6 70/1/6 80/1/6
f 80/1/6 70/1/6 145/1/6
f 145/1/6 70/1/6 146/1/6
f 146/1/6 70/1/6 90/1/6
f 22/1/6 147/1/6 152/1/6
f 152/1/6 153/1/6 15/1/6
f 147/1/6 92/1/6 152/1/6
f 152/1/6 15/1/6 22/1/6
f 155/1/6 33/1/6 156/1/6
f 156/1/6 33/1/6 157/1/6
f 157/1/6 33/1/6 71/1/6
f 157/1/6 71/1/6 162/1/6
f 71/1/6 163/1/6 162/1/6
f 162/1/6 163/1/6 164/1/6
f 155/1/6 156/1/6 166/1/6
f 164/1/6 163/1/6 84/1/6
f 155/1/6 166/1/6 101/1/6
f 166/1/6 84/1/6 101/1/6
f 84/1/6 163/1/6 103/1/6
f 101/1/6 84/1/6 103/1/6
f 171/1/4 179/1/4 181/1/4
f 180/1/4 178/1/4 126/1/4
f 179/1/4 172/1/4 180/1/4
f 171/1/4 170/1/4 175/1/4
f 171/1/4 168/1/4 179/1/4
f 180/1/4 172/1/4 178/1/4
f 179/1/4 168/1/4 172/1/4
usemtl grass.001
f 1/2/1 107/2/1 45/2/1
f 106/2/1 107/2/1 1/2/1
f 43/2/2 44/2/2 125/2/2
f 125/2/2 44/2/2 127/2/2
f 43/2/3 1/2/3 45/2/3
f 125/2/3 1/2/3 43/2/3
f 107/2/5 106/2/5 44/2/5
f 44/2/5 106/2/5 127/2/5
f 107/2/4 43/2/4 45/2/4
f 44/2/4 43/2/4 107/2/4
f 106/2/6 1/2/6 125/2/6
f 106/2/6 125/2/6 127/2/6
usemtl windows.001
f 129/3/2 60/3/2 110/3/2
f 110/3/2 60/3/2 59/3/2
f 94/3/2 62/3/2 27/3/2
f 27/3/2 62/3/2 28/3/2
f 53/3/2 136/3/2 54/3/2
f 54/3/2 136/3/2 76/3/2
f 140/3/2 79/3/2 117/3/2
f 117/3/2 79/3/2 78/3/2
f 144/3/2 80/3/2 29/3/2
f 29/3/2 80/3/2 122/3/2
f 34/3/2 35/3/2 112/3/2
f 112/3/2 35/3/2 111/3/2
f 75/3/2 87/3/2 77/3/2
f 77/3/2 87/3/2 86/3/2
f 142/3/2 36/3/2 118/3/2
f 118/3/2 36/3/2 89/3/2
f 145/3/2 146/3/2 124/3/2
f 124/3/2 146/3/2 91/3/2
f 6/3/3 108/3/3 128/3/3
f 52/3/3 108/3/3 6/3/3
f 9/3/3 20/3/3 132/3/3
f 113/3/3 20/3/3 9/3/3
f 53/3/3 115/3/3 135/3/3
f 54/3/3 115/3/3 53/3/3
f 140/3/3 55/3/3 139/3/3
f 117/3/3 55/3/3 140/3/3
f 144/3/3 120/3/3 143/3/3
f 29/3/3 120/3/3 144/3/3
f 180/3/3 73/3/3 179/3/3
f 74/3/3 73/3/3 180/3/3
f 75/3/3 76/3/3 136/3/3
f 77/3/3 76/3/3 75/3/3
f 142/3/3 78/3/3 79/3/3
f 118/3/3 78/3/3 142/3/3
f 145/3/3 122/3/3 80/3/3
f 124/3/3 122/3/3 145/3/3
f 89/1/4 67/1/4 118/1/4
usemtl objects.001
f 56/4/1 196/4/1 197/4/1
f 2/4/1 196/4/1 56/4/1
f 95/1/1 176/1/1 169/1/1
f 130/1/1 176/1/1 95/1/1
f 158/4/1 203/4/1 200/4/1
f 3/4/1 203/4/1 158/4/1
f 160/4/1 194/4/1 193/4/1
f 4/4/1 194/4/1 160/4/1
f 102/1/1 174/1/1 150/1/1
f 104/1/1 174/1/1 102/1/1
f 11/4/1 188/4/1 154/4/1
f 12/4/1 188/4/1 11/4/1
f 13/4/1 189/4/1 190/4/1
f 14/4/1 189/4/1 13/4/1
f 82/4/1 184/4/1 185/4/1
f 98/4/1 191/4/1 192/4/1
f 83/4/1 191/4/1 98/4/1
f 165/4/1 186/4/1 187/4/1
f 81/4/1 83/4/1 98/4/1
f 81/4/1 165/4/1 83/4/1
f 81/4/1 82/4/1 185/4/1
f 81/4/1 98/4/1 82/4/1
f 99/4/1 186/4/1 165/4/1
f 99/4/1 165/4/1 81/4/1
f 201/4/2 149/4/2 23/4/2
f 23/4/2 149/4/2 159/4/2
f 198/4/2 151/4/2 24/4/2
f 24/4/2 151/4/2 161/4/2
f 202/4/2 199/4/2 57/4/2
f 57/4/2 199/4/2 25/4/2
f 96/1/2 177/1/2 148/1/2
f 148/1/2 177/1/2 26/1/2
f 204/1/2 173/1/2 195/1/2
f 195/1/2 173/1/2 105/1/2
f 182/4/2 183/4/2 167/4/2
f 167/4/2 183/4/2 100/4/2
f 202/4/3 56/4/3 197/4/3
f 57/4/3 56/4/3 202/4/3
f 182/4/3 81/4/3 185/4/3
f 167/4/3 81/4/3 182/4/3
f 184/4/3 11/4/3 154/4/3
f 82/4/3 11/4/3 184/4/3
f 191/4/3 13/4/3 190/4/3
f 83/4/3 13/4/3 191/4/3
f 196/4/5 2/4/5 200/4/5
f 200/4/5 2/4/5 158/4/5
f 158/4/5 2/4/5 23/4/5
f 201/4/5 23/4/5 193/4/5
f 23/4/5 2/4/5 160/4/5
f 193/4/5 23/4/5 160/4/5
f 160/4/5 2/4/5 24/4/5
f 198/4/5 24/4/5 199/4/5
f 24/4/5 2/4/5 25/4/5
f 199/4/5 24/4/5 25/4/5
f 203/4/5 3/4/5 149/4/5
f 149/4/5 3/4/5 159/4/5
f 194/4/5 4/4/5 151/4/5
f 151/4/5 4/4/5 161/4/5
f 188/4/5 12/4/5 192/4/5
f 192/4/5 12/4/5 98/4/5
f 189/4/5 14/4/5 187/4/5
f 187/4/5 14/4/5 165/4/5
f 186/4/5 99/4/5 183/4/5
f 183/4/5 99/4/5 100/4/5
f 176/1/5 130/1/5 177/1/5
f 177/1/5 130/1/5 26/1/5
f 174/1/5 104/1/5 173/1/5
f 173/1/5 104/1/5 105/1/5
f 95/1/6 148/1/6 130/1/6
f 130/1/6 148/1/6 26/1/6
f 102/1/6 195/1/6 104/1/6
f 104/1/6 195/1/6 105/1/6
f 158/4/6 23/4/6 3/4/6
f 3/4/6 23/4/6 159/4/6
f 160/4/6 24/4/6 4/4/6
f 4/4/6 24/4/6 161/4/6
f 11/4/6 82/4/6 12/4/6
f 12/4/6 82/4/6 98/4/6
f 13/4/6 83/4/6 14/4/6
f 14/4/6 83/4/6 165/4/6
f 56/4/6 57/4/6 2/4/6
f 2/4/6 57/4/6 25/4/6
f 81/4/6 167/4/6 99/4/6
f 99/4/6 167/4/6 100/4/6
