# Blender 5.0.1
# www.blender.org
mtllib 3_industrial.mtl
o 3.001
v -4.945834 -5.562501 3.937501
v -4.945834 -5.812500 -5.062499
v -4.945834 -5.812501 3.937501
v -4.195834 3.187500 -4.062498
v -3.445834 3.437500 0.437503
v -2.695834 -2.062500 1.937502
v -2.695834 -2.062500 2.187502
v -2.695834 -0.062500 2.187502
v -2.695834 1.187500 2.187502
v -2.695834 0.437500 1.937502
v -2.695834 0.437500 2.187502
v -2.695834 2.437500 2.187503
v -2.695834 1.687500 2.187502
v -2.695834 2.437500 1.937503
v -2.445834 3.187500 0.187503
v -1.695834 -3.312500 2.187501
v -1.195834 -2.062500 2.187502
v -1.195834 -0.062500 1.937502
v -1.195834 0.437500 1.937502
v -1.195834 1.187500 1.937502
v -1.195834 1.687500 2.187502
v -1.195834 3.187500 1.687503
v -1.195834 2.937500 1.687503
v 2.804166 -2.062500 -0.062498
v 2.804166 1.187500 0.187502
v 2.804166 1.187500 -0.062498
v 2.804166 2.437500 0.187502
v 2.804166 1.687500 0.187502
v 2.804166 3.187500 -0.312497
v 2.804166 2.937500 -0.312497
v -3.695834 -2.062500 1.937502
v -3.695834 -1.312500 1.937502
v -3.695834 -0.062500 2.187502
v -3.695834 0.437500 1.937502
v -3.695834 1.187500 1.937502
v -3.695834 1.687500 1.937502
v -3.695834 2.437500 1.937503
v -3.695834 2.937500 1.687503
v -2.945834 2.937500 0.187503
v -2.195834 -2.062500 2.187502
v -2.195834 -2.062500 1.937502
v -2.195834 -1.312500 2.187502
v -2.195834 -0.062500 2.187502
v -2.195834 0.437500 1.937502
v -2.195834 1.187500 2.187502
v -2.195834 2.437500 1.937503
v -0.195834 -2.812500 0.187501
v -0.195834 -0.812500 -0.062498
v -0.195834 -0.062500 0.187502
v -0.195834 -0.062500 -0.062498
v -0.195834 0.437500 -0.062498
v -0.195834 1.687500 -0.062498
v -0.195834 2.437500 -0.062498
v 2.054166 3.187500 -1.312497
v 2.054166 3.187500 -1.562497
v 2.054166 3.187499 -2.062497
v 2.054166 3.187499 -2.312497
v 2.054166 3.437500 -1.062497
v 2.304166 3.187500 -1.312497
v 2.304166 3.187499 -2.312497
v 3.054166 -0.812501 -0.562498
v 3.054166 -0.812501 -3.312499
v 3.054166 -0.062501 -0.562498
v 3.054166 1.687499 -3.312497
v 3.304166 -4.812500 -1.562499
v 3.304166 -2.062500 -0.562498
v 3.304166 -0.812501 -0.562498
v 3.304166 -0.062501 -0.562498
v 3.304166 0.437499 -0.562498
v 3.304166 0.437499 -3.312499
v 3.304166 3.187500 0.187503
v 3.804166 -5.062500 -3.062499
v 4.054166 -5.562500 -5.062499
v 4.054166 -5.812501 3.937501
v -3.695834 -1.312500 2.187502
v -3.695834 1.187500 2.187502
v -3.695834 2.437500 2.187503
v -3.195834 -3.312500 2.187501
v -2.195834 -0.812500 2.187502
v -2.195834 0.437500 2.187502
v -1.195834 -0.812500 2.187502
v -1.195834 0.437500 2.187502
v -1.195834 1.187500 2.187502
v -1.195834 2.437500 2.187503
v -0.695834 3.187500 2.187503
v -2.695834 -1.312500 1.937502
v -3.695834 -0.062500 1.937502
v -2.695834 1.687500 1.937502
v -1.695834 -3.312500 1.937501
v -1.195834 -2.062500 1.937502
v -2.195834 -0.812500 1.937502
v -1.195834 1.687500 1.937502
v -2.195834 1.687500 1.937502
v -3.445834 3.437500 1.187503
v -0.195834 -4.812500 0.187501
v -0.695834 3.187500 0.187503
v -0.195834 -1.312500 0.187502
v -0.195834 0.437500 0.187502
v -0.195834 2.437500 0.187502
v 2.804166 -4.812500 0.187501
v 2.804166 -2.812500 0.187501
v 2.804166 -2.062500 0.187502
v 2.804166 0.437500 0.187502
v 2.804166 -4.812500 -0.062499
v -0.195834 -2.812500 -0.062499
v -0.195834 -1.312500 -0.062498
v -0.195834 -2.062500 -0.062498
v 2.804166 -0.812500 -0.062498
v 2.804166 0.437500 -0.062498
v -0.195834 1.187500 -0.062498
v 2.804166 2.437500 -0.062498
v 3.804166 -4.812500 -0.812499
v 2.054166 2.937500 -1.312497
v 3.304166 -1.312501 -3.312499
v 3.304166 -0.062501 -3.312499
v 3.054166 1.187499 -3.312497
v 3.054166 0.437499 -3.312499
v 3.304166 1.187499 -3.312497
v 3.304166 1.687499 -3.312497
v 3.054166 2.437499 -3.312497
v 3.304166 2.437499 -3.312497
v 2.804166 2.937500 -3.562497
v -3.695834 3.187500 1.687503
v -3.195834 3.187500 0.437503
v -2.945834 3.187500 0.187503
v -2.195834 3.187500 0.187503
v -1.195834 2.937500 -0.312497
v -1.195834 3.187500 -0.312497
v 3.054166 -2.062500 -0.562498
v 3.304166 -1.312500 -0.562498
v 3.304166 1.187500 -0.562498
v 3.054166 1.687500 -0.562498
v 3.054166 2.437500 -0.562498
v 3.804166 -4.812500 -1.562499
v 2.054166 2.937499 -2.562497
v 3.804166 -5.062500 -3.812499
v 3.304166 3.187500 -4.062498
v -4.945834 -5.562500 -5.062499
v 4.054166 -5.812500 -5.062499
v -3.195834 -3.312500 1.937501
v 2.804166 -2.812500 -0.062499
v -2.695834 -1.312500 2.187502
v -2.195834 -1.312500 1.937502
v -1.195834 -1.312500 2.187502
v -1.195834 -1.312500 1.937502
v 2.804166 -1.312500 0.187502
v 2.804166 -1.312500 -0.062498
v 3.054166 -1.312501 -3.312499
v 3.054166 -1.312500 -0.562498
v -2.695834 -0.062500 1.937502
v -2.195834 -0.062500 1.937502
v -1.195834 -0.062500 2.187502
v 2.804166 -0.062500 0.187502
v 2.804166 -0.062500 -0.062498
v 3.054166 -0.062501 -3.312499
v -2.695834 1.187500 1.937502
v -2.195834 1.187500 1.937502
v -0.195834 1.187500 0.187502
v 3.054166 1.187500 -0.562498
v -2.195834 2.437500 2.187503
v -1.195834 2.437500 1.937503
v 3.304166 2.437500 -0.562498
v 4.054166 -5.562501 3.937501
v -1.695834 -5.562500 2.187501
v -0.695834 -5.562500 0.187501
v 3.304166 -5.562500 0.187501
v 3.304166 -5.562500 -0.812499
v 3.804166 -5.562500 -1.562499
v -4.195834 -5.562500 -4.062499
v 3.304166 -5.062500 -3.062499
v 3.304166 -5.062500 -3.812499
v -0.195834 -4.812500 -0.062499
v -3.695834 -2.062500 2.187502
v -0.195834 -2.062500 0.187502
v 3.054166 -2.062501 -3.312499
v 3.304166 -2.062501 -3.312499
v -3.695834 -0.812500 2.187502
v -2.695834 -0.812500 2.187502
v -3.695834 -0.812500 1.937502
v -2.695834 -0.812500 1.937502
v -1.195834 -0.812500 1.937502
v -0.195834 -0.812500 0.187502
v 2.804166 -0.812500 0.187502
v 3.304166 -0.812501 -3.312499
v -3.695834 0.437500 2.187502
v 3.054166 0.437499 -0.562498
v -3.695834 1.687500 2.187502
v -2.195834 1.687500 2.187502
v -0.195834 1.687500 0.187502
v 2.804166 1.687500 -0.062498
v 3.304166 1.687500 -0.562498
v 2.304166 2.937500 -1.562497
v 2.304166 2.937499 -2.062497
v 1.304166 2.937499 -2.562497
v -3.695834 2.937500 -3.562497
v -4.195834 3.187500 2.187503
v 3.304166 -5.562500 -3.062499
v 3.304166 -5.562500 -1.562499
v -2.945834 3.187500 0.437503
v -3.195834 3.187500 0.187503
v -2.445834 3.187500 0.437503
v -2.195834 3.187500 0.437503
v -1.695834 -5.562500 1.937501
v 3.304166 -5.562500 -4.062499
v -4.195834 -5.562500 2.187501
v 3.804166 -5.562500 -3.062499
v 3.804166 -5.562500 -0.812499
v 3.804166 -5.562500 -3.812499
v 2.304166 3.187500 -1.562497
v -3.195834 -5.562500 1.937501
v 2.304166 3.187499 -2.062497
v -3.195834 -5.562500 2.187501
v -0.695834 -5.562500 2.187501
v -3.695834 3.187500 -3.562497
v 2.804166 3.187500 -3.562497
v 3.304166 -5.562500 -3.812499
v -1.945834 3.437500 1.187503
v -1.945834 3.437500 0.437503
v 1.304166 3.437500 -1.062497
v 1.304166 3.437499 -2.562497
v 2.054166 3.437499 -2.562497
v 3.304166 -4.812500 -0.812499
v 2.304166 2.937499 -2.312497
v 1.304166 2.937500 -1.062497
v 2.054166 2.937499 -2.062497
v 2.054166 2.937499 -2.312497
v 2.054166 2.937500 -1.562497
v 2.304166 2.937500 -1.312497
v 2.054166 2.937500 -1.062497
v -2.445834 2.937500 0.187503
v -2.445834 2.937500 0.437503
v -3.445834 2.937500 0.437503
v -3.195834 2.937500 0.437503
v -2.195834 2.937500 0.437503
v -2.195834 2.937500 0.187503
v -2.945834 2.937500 0.437503
v -1.945834 2.937500 0.437503
v -3.195834 2.937500 0.187503
v -1.945834 2.937500 1.187503
v -3.445834 2.937500 1.187503
vn -1.0000 -0.0000 -0.0000
vn 1.0000 -0.0000 -0.0000
vn -0.0000 -0.0000 1.0000
vn -0.0000 -0.0000 -1.0000
vn -0.0000 -1.0000 -0.0000
vn -0.0000 1.0000 -0.0000
vt 0.005900 0.500000
vt 0.002000 0.500000
vt 0.013700 0.500000
vt 0.009800 0.500000
s 1
usemtl wall.005
f 196/1/1 169/1/1 205/1/1
f 4/1/1 169/1/1 196/1/1
f 142/1/1 6/1/1 7/1/1
f 86/1/1 6/1/1 142/1/1
f 8/1/1 180/1/1 178/1/1
f 150/1/1 180/1/1 8/1/1
f 9/1/1 10/1/1 11/1/1
f 156/1/1 10/1/1 9/1/1
f 12/1/1 88/1/1 13/1/1
f 14/1/1 88/1/1 12/1/1
f 16/1/1 203/1/1 164/1/1
f 89/1/1 203/1/1 16/1/1
f 144/1/1 90/1/1 17/1/1
f 145/1/1 90/1/1 144/1/1
f 152/1/1 181/1/1 81/1/1
f 18/1/1 181/1/1 152/1/1
f 83/1/1 19/1/1 82/1/1
f 20/1/1 19/1/1 83/1/1
f 84/1/1 92/1/1 21/1/1
f 161/1/1 92/1/1 84/1/1
f 22/1/1 127/1/1 23/1/1
f 128/1/1 127/1/1 22/1/1
f 101/1/1 104/1/1 100/1/1
f 141/1/1 104/1/1 101/1/1
f 146/1/1 24/1/1 102/1/1
f 147/1/1 24/1/1 146/1/1
f 153/1/1 108/1/1 183/1/1
f 154/1/1 108/1/1 153/1/1
f 25/1/1 109/1/1 103/1/1
f 26/1/1 109/1/1 25/1/1
f 27/1/1 190/1/1 28/1/1
f 111/1/1 190/1/1 27/1/1
f 29/1/1 122/1/1 30/1/1
f 215/1/1 122/1/1 29/1/1
f 173/1/2 31/1/2 75/1/2
f 75/1/2 31/1/2 32/1/2
f 177/1/2 179/1/2 33/1/2
f 33/1/2 179/1/2 87/1/2
f 185/1/2 34/1/2 76/1/2
f 76/1/2 34/1/2 35/1/2
f 187/1/2 36/1/2 77/1/2
f 77/1/2 36/1/2 37/1/2
f 38/1/2 195/1/2 123/1/2
f 123/1/2 195/1/2 214/1/2
f 212/1/2 210/1/2 78/1/2
f 78/1/2 210/1/2 140/1/2
f 40/1/2 41/1/2 42/1/2
f 42/1/2 41/1/2 143/1/2
f 79/1/2 91/1/2 43/1/2
f 43/1/2 91/1/2 151/1/2
f 80/1/2 44/1/2 45/1/2
f 45/1/2 44/1/2 157/1/2
f 188/1/2 93/1/2 160/1/2
f 160/1/2 93/1/2 46/1/2
f 213/1/2 165/1/2 85/1/2
f 85/1/2 165/1/2 96/1/2
f 95/1/2 172/1/2 47/1/2
f 47/1/2 172/1/2 105/1/2
f 174/1/2 107/1/2 97/1/2
f 97/1/2 107/1/2 106/1/2
f 182/1/2 48/1/2 49/1/2
f 49/1/2 48/1/2 50/1/2
f 98/1/2 51/1/2 158/1/2
f 158/1/2 51/1/2 110/1/2
f 189/1/2 52/1/2 99/1/2
f 99/1/2 52/1/2 53/1/2
f 153/1/3 183/1/3 71/1/3
f 166/1/2 204/1/2 66/1/2
f 66/1/2 204/1/2 176/1/2
f 102/1/3 101/1/3 166/1/3
f 158/1/3 96/1/3 98/1/3
f 71/1/2 68/1/2 69/1/2
f 130/1/2 114/1/2 67/1/2
f 49/1/3 96/1/3 182/1/3
f 67/1/2 114/1/2 184/1/2
f 71/1/3 25/1/3 103/1/3
f 49/1/3 98/1/3 96/1/3
f 71/1/3 27/1/3 28/1/3
f 68/1/2 115/1/2 69/1/2
f 189/1/3 96/1/3 158/1/3
f 69/1/2 115/1/2 70/1/2
f 166/1/3 71/1/3 146/1/3
f 137/1/2 70/1/2 115/1/2
f 131/1/2 118/1/2 191/1/2
f 99/1/3 96/1/3 189/1/3
f 191/1/2 118/1/2 119/1/2
f 146/1/3 102/1/3 166/1/3
f 28/1/3 25/1/3 71/1/3
f 183/1/3 146/1/3 71/1/3
f 162/1/2 121/1/2 71/1/2
f 165/1/3 97/1/3 96/1/3
f 71/1/2 121/1/2 137/1/2
f 69/1/2 131/1/2 71/1/2
f 196/1/3 77/1/3 12/1/3
f 79/1/3 43/1/3 178/1/3
f 85/1/3 196/1/3 12/1/3
f 142/1/3 40/1/3 42/1/3
f 137/1/2 118/1/2 70/1/2
f 137/1/2 121/1/2 119/1/2
f 142/1/3 42/1/3 79/1/3
f 130/1/2 67/1/2 71/1/2
f 191/1/2 162/1/2 71/1/2
f 115/1/2 184/1/2 137/1/2
f 142/1/3 177/1/3 75/1/3
f 178/1/3 177/1/3 142/1/3
f 8/1/3 185/1/3 33/1/3
f 11/1/3 185/1/3 8/1/3
f 9/1/3 187/1/3 76/1/3
f 13/1/3 187/1/3 9/1/3
f 160/1/3 84/1/3 85/1/3
f 17/1/3 40/1/3 16/1/3
f 188/1/3 12/1/3 13/1/3
f 45/1/3 188/1/3 13/1/3
f 204/1/2 137/1/2 114/1/2
f 40/1/3 7/1/3 16/1/3
f 13/1/3 9/1/3 45/1/3
f 80/1/3 45/1/3 9/1/3
f 40/1/3 142/1/3 7/1/3
f 178/1/3 142/1/3 79/1/3
f 178/1/3 43/1/3 8/1/3
f 11/1/3 8/1/3 80/1/3
f 8/1/3 43/1/3 80/1/3
f 12/1/3 160/1/3 85/1/3
f 9/1/3 11/1/3 80/1/3
f 119/1/2 118/1/2 137/1/2
f 160/1/3 12/1/3 188/1/3
f 166/1/2 66/1/2 130/1/2
f 114/1/2 176/1/2 204/1/2
f 131/1/2 191/1/2 71/1/2
f 144/1/3 79/1/3 42/1/3
f 81/1/3 79/1/3 144/1/3
f 152/1/3 80/1/3 43/1/3
f 82/1/3 80/1/3 152/1/3
f 83/1/3 188/1/3 45/1/3
f 21/1/3 188/1/3 83/1/3
f 184/1/2 114/1/2 137/1/2
f 173/1/3 205/1/3 78/1/3
f 75/1/3 196/1/3 205/1/3
f 187/1/3 77/1/3 196/1/3
f 173/1/3 75/1/3 205/1/3
f 205/1/3 212/1/3 78/1/3
f 71/1/2 166/1/2 130/1/2
f 16/1/3 164/1/3 213/1/3
f 177/1/3 33/1/3 196/1/3
f 71/1/2 67/1/2 68/1/2
f 33/1/3 185/1/3 196/1/3
f 97/1/3 182/1/3 96/1/3
f 174/1/3 97/1/3 165/1/3
f 16/1/3 213/1/3 17/1/3
f 177/1/3 196/1/3 75/1/3
f 165/1/3 95/1/3 47/1/3
f 78/1/3 7/1/3 173/1/3
f 16/1/3 7/1/3 78/1/3
f 165/1/3 47/1/3 174/1/3
f 76/1/3 187/1/3 196/1/3
f 185/1/3 76/1/3 196/1/3
f 100/1/3 95/1/3 165/1/3
f 101/1/3 174/1/3 47/1/3
f 102/1/3 174/1/3 101/1/3
f 146/1/3 182/1/3 97/1/3
f 183/1/3 182/1/3 146/1/3
f 153/1/3 98/1/3 49/1/3
f 103/1/3 98/1/3 153/1/3
f 25/1/3 189/1/3 158/1/3
f 28/1/3 189/1/3 25/1/3
f 27/1/3 96/1/3 99/1/3
f 85/1/3 83/1/3 82/1/3
f 152/1/3 81/1/3 85/1/3
f 21/1/3 83/1/3 85/1/3
f 166/1/3 100/1/3 165/1/3
f 85/1/3 84/1/3 21/1/3
f 103/1/3 153/1/3 71/1/3
f 213/1/3 85/1/3 144/1/3
f 85/1/3 82/1/3 152/1/3
f 213/1/3 144/1/3 17/1/3
f 166/1/3 101/1/3 100/1/3
f 71/1/3 96/1/3 27/1/3
f 85/1/3 81/1/3 144/1/3
f 176/1/3 148/1/3 175/1/3
f 114/1/3 148/1/3 176/1/3
f 184/1/3 155/1/3 62/1/3
f 115/1/3 155/1/3 184/1/3
f 70/1/3 116/1/3 117/1/3
f 118/1/3 116/1/3 70/1/3
f 119/1/3 120/1/3 64/1/3
f 121/1/3 120/1/3 119/1/3
f 122/1/3 214/1/3 195/1/3
f 215/1/3 214/1/3 122/1/3
f 38/1/4 123/1/4 23/1/4
f 23/1/4 123/1/4 22/1/4
f 127/1/4 128/1/4 30/1/4
f 30/1/4 128/1/4 29/1/4
f 129/1/4 149/1/4 66/1/4
f 66/1/4 149/1/4 130/1/4
f 61/1/4 63/1/4 67/1/4
f 67/1/4 63/1/4 68/1/4
f 186/1/4 159/1/4 69/1/4
f 69/1/4 159/1/4 131/1/4
f 132/1/4 133/1/4 191/1/4
f 191/1/4 133/1/4 162/1/4
f 169/1/4 4/1/4 204/1/4
f 204/1/4 4/1/4 137/1/4
f 140/1/5 16/1/5 78/1/5
f 89/1/5 16/1/5 140/1/5
f 105/1/5 101/1/5 47/1/5
f 141/1/5 101/1/5 105/1/5
f 32/1/5 142/1/5 75/1/5
f 86/1/5 142/1/5 32/1/5
f 143/1/5 144/1/5 42/1/5
f 145/1/5 144/1/5 143/1/5
f 106/1/5 146/1/5 97/1/5
f 147/1/5 146/1/5 106/1/5
f 148/1/5 130/1/5 149/1/5
f 114/1/5 130/1/5 148/1/5
f 87/1/5 8/1/5 33/1/5
f 150/1/5 8/1/5 87/1/5
f 151/1/5 152/1/5 43/1/5
f 18/1/5 152/1/5 151/1/5
f 50/1/5 153/1/5 49/1/5
f 154/1/5 153/1/5 50/1/5
f 155/1/5 68/1/5 63/1/5
f 115/1/5 68/1/5 155/1/5
f 35/1/5 9/1/5 76/1/5
f 156/1/5 9/1/5 35/1/5
f 157/1/5 83/1/5 45/1/5
f 20/1/5 83/1/5 157/1/5
f 110/1/5 25/1/5 158/1/5
f 26/1/5 25/1/5 110/1/5
f 116/1/5 131/1/5 159/1/5
f 118/1/5 131/1/5 116/1/5
f 37/1/5 12/1/5 77/1/5
f 14/1/5 12/1/5 37/1/5
f 46/1/5 84/1/5 160/1/5
f 161/1/5 84/1/5 46/1/5
f 53/1/5 27/1/5 99/1/5
f 111/1/5 27/1/5 53/1/5
f 120/1/5 162/1/5 133/1/5
f 121/1/5 162/1/5 120/1/5
f 95/1/6 100/1/6 172/1/6
f 172/1/6 100/1/6 104/1/6
f 173/1/6 7/1/6 31/1/6
f 31/1/6 7/1/6 6/1/6
f 40/1/6 17/1/6 41/1/6
f 41/1/6 17/1/6 90/1/6
f 174/1/6 102/1/6 107/1/6
f 107/1/6 102/1/6 24/1/6
f 129/1/6 66/1/6 175/1/6
f 175/1/6 66/1/6 176/1/6
f 177/1/6 178/1/6 179/1/6
f 179/1/6 178/1/6 180/1/6
f 79/1/6 81/1/6 91/1/6
f 91/1/6 81/1/6 181/1/6
f 182/1/6 183/1/6 48/1/6
f 48/1/6 183/1/6 108/1/6
f 61/1/6 67/1/6 62/1/6
f 62/1/6 67/1/6 184/1/6
f 185/1/6 11/1/6 34/1/6
f 34/1/6 11/1/6 10/1/6
f 80/1/6 82/1/6 44/1/6
f 44/1/6 82/1/6 19/1/6
f 98/1/6 103/1/6 51/1/6
f 51/1/6 103/1/6 109/1/6
f 186/1/6 69/1/6 117/1/6
f 117/1/6 69/1/6 70/1/6
f 187/1/6 13/1/6 36/1/6
f 36/1/6 13/1/6 88/1/6
f 188/1/6 21/1/6 93/1/6
f 93/1/6 21/1/6 92/1/6
f 189/1/6 28/1/6 52/1/6
f 52/1/6 28/1/6 190/1/6
f 132/1/6 191/1/6 64/1/6
f 64/1/6 191/1/6 119/1/6
f 127/1/6 122/1/6 195/1/6
f 30/1/6 122/1/6 127/1/6
f 195/1/6 38/1/6 127/1/6
f 38/1/6 23/1/6 127/1/6
f 196/1/6 85/1/6 123/1/6
f 123/1/6 85/1/6 22/1/6
f 22/1/6 85/1/6 96/1/6
f 96/1/6 71/1/6 128/1/6
f 22/1/6 96/1/6 128/1/6
f 128/1/6 71/1/6 29/1/6
f 196/1/6 123/1/6 214/1/6
f 29/1/6 71/1/6 215/1/6
f 196/1/6 214/1/6 4/1/6
f 214/1/6 215/1/6 4/1/6
f 215/1/6 71/1/6 137/1/6
f 4/1/6 215/1/6 137/1/6
f 210/1/5 205/1/5 169/1/5
f 204/1/5 166/1/5 165/1/5
f 213/1/5 203/1/5 165/1/5
f 165/1/5 169/1/5 204/1/5
f 210/1/5 169/1/5 203/1/5
f 210/1/5 212/1/5 205/1/5
f 213/1/5 164/1/5 203/1/5
f 165/1/5 203/1/5 169/1/5
usemtl grass.005
f 1/2/1 2/2/1 3/2/1
f 138/2/1 2/2/1 1/2/1
f 74/2/2 139/2/2 163/2/2
f 163/2/2 139/2/2 73/2/2
f 74/2/3 1/2/3 3/2/3
f 163/2/3 1/2/3 74/2/3
f 2/2/4 138/2/4 139/2/4
f 139/2/4 138/2/4 73/2/4
f 2/2/5 74/2/5 3/2/5
f 139/2/5 74/2/5 2/2/5
f 138/2/6 1/2/6 163/2/6
f 138/2/6 163/2/6 73/2/6
usemtl windows.005
f 129/3/2 175/3/2 149/3/2
f 149/3/2 175/3/2 148/3/2
f 61/3/2 62/3/2 63/3/2
f 63/3/2 62/3/2 155/3/2
f 186/3/2 117/3/2 159/3/2
f 159/3/2 117/3/2 116/3/2
f 132/3/2 64/3/2 133/3/2
f 133/3/2 64/3/2 120/3/2
f 6/3/3 32/3/3 31/3/3
f 86/3/3 32/3/3 6/3/3
f 180/3/3 87/3/3 179/3/3
f 150/3/3 87/3/3 180/3/3
f 10/3/3 35/3/3 34/3/3
f 156/3/3 35/3/3 10/3/3
f 88/3/3 37/3/3 36/3/3
f 14/3/3 37/3/3 88/3/3
f 203/3/3 140/3/3 210/3/3
f 89/3/3 140/3/3 203/3/3
f 90/3/3 143/3/3 41/3/3
f 145/3/3 143/3/3 90/3/3
f 181/3/3 151/3/3 91/3/3
f 18/3/3 151/3/3 181/3/3
f 19/3/3 157/3/3 44/3/3
f 20/3/3 157/3/3 19/3/3
f 92/3/3 46/3/3 93/3/3
f 161/3/3 46/3/3 92/3/3
f 104/3/3 105/3/3 172/3/3
f 141/3/3 105/3/3 104/3/3
f 24/3/3 106/3/3 107/3/3
f 147/3/3 106/3/3 24/3/3
f 108/3/3 50/3/3 48/3/3
f 154/3/3 50/3/3 108/3/3
f 109/3/3 110/3/3 51/3/3
f 26/3/3 110/3/3 109/3/3
f 190/3/3 53/3/3 52/3/3
f 111/3/3 53/3/3 190/3/3
usemtl objects.005
f 94/4/1 232/4/1 240/4/1
f 5/4/1 232/4/1 94/4/1
f 124/4/1 238/4/1 233/4/1
f 200/4/1 238/4/1 124/4/1
f 201/4/1 230/4/1 231/4/1
f 15/4/1 230/4/1 201/4/1
f 219/4/1 194/4/1 224/4/1
f 220/4/1 194/4/1 219/4/1
f 236/4/2 39/4/2 199/4/2
f 199/4/2 39/4/2 125/4/2
f 234/4/2 235/4/2 202/4/2
f 202/4/2 235/4/2 126/4/2
f 239/4/2 237/4/2 217/4/2
f 217/4/2 237/4/2 218/4/2
f 229/4/2 113/4/2 54/4/2
f 227/4/2 225/4/2 55/4/2
f 55/4/2 225/4/2 56/4/2
f 226/4/2 135/4/2 57/4/2
f 58/4/2 229/4/2 54/4/2
f 56/4/2 57/4/2 221/4/2
f 54/4/2 55/4/2 58/4/2
f 57/4/2 135/4/2 221/4/2
f 56/4/2 221/4/2 58/4/2
f 228/4/2 192/4/2 59/4/2
f 59/4/2 192/4/2 209/4/2
f 193/4/2 223/4/2 211/4/2
f 211/4/2 223/4/2 60/4/2
f 206/4/2 208/4/2 72/4/2
f 72/4/2 208/4/2 136/4/2
f 207/4/2 168/4/2 112/4/2
f 112/4/2 168/4/2 134/4/2
f 239/4/3 94/4/3 240/4/3
f 217/4/3 94/4/3 239/4/3
f 207/4/3 222/4/3 167/4/3
f 112/4/3 222/4/3 207/4/3
f 229/4/3 219/4/3 224/4/3
f 58/4/3 219/4/3 229/4/3
f 228/4/3 54/4/3 113/4/3
f 59/4/3 54/4/3 228/4/3
f 193/4/3 56/4/3 225/4/3
f 211/4/3 56/4/3 193/4/3
f 206/4/3 170/4/3 197/4/3
f 72/4/3 170/4/3 206/4/3
f 5/4/4 199/4/4 124/4/4
f 202/4/4 201/4/4 218/4/4
f 233/4/4 232/4/4 124/4/4
f 236/4/4 199/4/4 231/4/4
f 201/4/4 199/4/4 218/4/4
f 231/4/4 199/4/4 201/4/4
f 124/4/4 232/4/4 5/4/4
f 218/4/4 237/4/4 202/4/4
f 237/4/4 234/4/4 202/4/4
f 238/4/4 200/4/4 39/4/4
f 39/4/4 200/4/4 125/4/4
f 230/4/4 15/4/4 235/4/4
f 235/4/4 15/4/4 126/4/4
f 227/4/4 55/4/4 192/4/4
f 192/4/4 55/4/4 209/4/4
f 198/4/4 65/4/4 168/4/4
f 168/4/4 65/4/4 134/4/4
f 226/4/4 57/4/4 223/4/4
f 223/4/4 57/4/4 60/4/4
f 194/4/4 220/4/4 135/4/4
f 135/4/4 220/4/4 221/4/4
f 216/4/4 171/4/4 208/4/4
f 208/4/4 171/4/4 136/4/4
f 170/4/6 72/4/6 171/4/6
f 171/4/6 72/4/6 136/4/6
f 222/4/6 112/4/6 65/4/6
f 65/4/6 112/4/6 134/4/6
f 124/4/6 199/4/6 200/4/6
f 200/4/6 199/4/6 125/4/6
f 201/4/6 202/4/6 15/4/6
f 15/4/6 202/4/6 126/4/6
f 54/4/6 59/4/6 55/4/6
f 55/4/6 59/4/6 209/4/6
f 56/4/6 211/4/6 57/4/6
f 57/4/6 211/4/6 60/4/6
f 94/4/6 217/4/6 5/4/6
f 5/4/6 217/4/6 218/4/6
f 219/4/6 58/4/6 220/4/6
f 220/4/6 58/4/6 221/4/6
f 55/4/2 56/4/2 58/4/2
f 5/4/4 218/4/4 199/4/4
